<svg width="48" height="48" viewBox="0 0 19 21" fill="none" xmlns="http://www.w3.org/2000/svg">
<path d="M17.4714 4.39038L10.3737 0.292187C10.0609 0.107937 9.68481 0 9.28194 0C8.87906 0 8.503 0.108625 8.17919 0.297687L8.1895 0.292187L1.09175 4.39038C0.435187 4.77606 0.001375 5.478 0 6.281V14.4774C0.001375 15.2804 0.436562 15.9823 1.08212 16.3625L1.09313 16.368L8.1895 20.4662C8.50231 20.6498 8.87975 20.7584 9.28262 20.7584C9.68412 20.7584 10.0602 20.6497 10.384 20.4607L10.3744 20.4662L17.4707 16.368C18.1273 15.9823 18.5611 15.2804 18.5625 14.4774V6.281C18.5611 5.478 18.1273 4.77606 17.4811 4.39588L17.4714 4.39038ZM17.1077 14.4774C17.1077 14.7448 16.9627 14.9793 16.7461 15.1058L16.7434 15.1071L9.64562 19.2053C9.54112 19.2658 9.416 19.3029 9.28125 19.3029C9.1465 19.3029 9.02206 19.2665 8.91344 19.2032L8.91687 19.2046L1.81912 15.1064C1.59981 14.9786 1.45544 14.7441 1.45544 14.4767V6.28031C1.45544 6.01288 1.6005 5.77844 1.81706 5.65194L1.81981 5.65056L8.91756 1.55237C9.02206 1.4905 9.14719 1.45406 9.28194 1.45406C9.41669 1.45406 9.54112 1.4905 9.64975 1.55306L9.64562 1.55169L16.7434 5.64988C16.9627 5.77706 17.1071 6.01219 17.1071 6.27962L17.1077 14.4774Z" fill="#87A9E1"/>
<path d="M13.4722 12.7517H12.9511C12.8218 12.7517 12.7015 12.7854 12.597 12.8445L12.6012 12.8417L9.45653 14.5687L5.82516 12.4725V8.29117L9.45653 6.19361L12.6025 7.91511C12.7029 7.97148 12.8246 8.00517 12.9518 8.00517H13.4729C13.6743 8.00517 13.8366 7.84086 13.8366 7.64011V7.14786C13.8366 7.01036 13.761 6.89142 13.6503 6.82955L13.6475 6.82817L10.1564 4.91898C9.95497 4.80623 9.71297 4.74023 9.45859 4.74023C9.19047 4.74023 8.93884 4.81311 8.72297 4.93892L8.72984 4.9348L5.09916 7.03098C4.66191 7.2888 4.37316 7.7563 4.37109 8.29186V12.4732C4.37109 13.0088 4.66122 13.4777 5.09228 13.73L5.09847 13.7341L8.72916 15.8303C8.93884 15.9527 9.18978 16.0255 9.45859 16.0255C9.71503 16.0255 9.95566 15.9582 10.1647 15.8434L10.1564 15.8475L13.6489 13.9314C13.763 13.8689 13.8387 13.7492 13.8387 13.6117V13.1195C13.8387 12.918 13.675 12.7558 13.475 12.7558L13.4722 12.7517Z" fill="#87A9E1"/>
</svg>