<svg width="48" height="48" viewBox="0 0 14 17" fill="none" xmlns="http://www.w3.org/2000/svg">
<path d="M7.25857 15.9375C7.57188 15.7906 7.79969 15.5836 7.79969 15.4318C7.79969 15.371 8.60351 14.5672 8.70982 14.5216C8.72501 14.5166 8.83132 14.547 8.93257 14.5875L9.12494 14.6685L8.76607 14.8957C8.56863 15.0172 8.38694 15.1185 8.35657 15.1185L7.25857 15.9375ZM8.80544 15.0729L9.14913 14.9008C9.84213 14.552 11.7124 13.9096 12.4206 13.773C12.7339 13.7173 12.6631 13.6666 12.3346 13.7122C12.1624 13.7325 11.9909 13.7679 11.9504 13.778C11.8086 13.8337 12.0618 13.6008 12.3649 13.3938C12.532 13.2875 12.6276 13.1964 12.5826 13.1964C12.3402 13.1964 10.1504 14.0711 9.73582 14.3388C9.57888 14.4401 9.56876 14.435 9.56876 14.2173C9.56876 14.0351 9.58394 14.025 9.91244 13.8433C10.2004 13.6863 11.9701 12.8926 12.0308 12.8926C12.0409 12.8926 11.9903 12.999 11.9144 13.13L11.7726 13.3725L12.1568 13.0186C12.3694 12.8212 12.541 12.6496 12.5461 12.6345C12.5461 12.6142 12.4246 12.6294 12.2733 12.6648C12.1219 12.7003 11.9853 12.7155 11.9751 12.6952C11.9245 12.6142 12.0409 12.0376 12.1473 11.8306C12.208 11.7091 12.289 11.4262 12.3244 11.2035C12.4713 10.3237 12.6529 9.61102 12.8554 9.12558C13.2852 8.10915 13.3257 7.95783 13.2599 7.67433C13.2244 7.53765 13.2093 7.36102 13.2295 7.27496C13.2447 7.19396 13.2346 7.0674 13.2093 6.99708C13.1738 6.9009 13.1738 6.84015 13.2143 6.79458C13.2599 6.73383 13.2295 6.66802 13.0574 6.46608C12.9409 6.3294 12.8498 6.20846 12.8599 6.2034C12.8701 6.19327 12.9612 6.15277 13.0574 6.11227L13.2346 6.03127L13.2852 5.33883C13.3156 4.95971 13.3308 4.6509 13.3308 4.6509C13.3257 4.6509 13.1035 4.71671 12.8301 4.80277C12.5573 4.88377 12.3093 4.95465 12.2738 4.95465C12.2029 4.95465 12.1371 4.82302 11.92 4.21665C11.7783 3.83246 11.7529 3.71096 11.7783 3.4584C11.8086 3.10965 11.6871 2.30583 11.5358 1.85583C11.3333 1.2489 10.6966 0.146959 10.489 0.0558338C10.3118 -0.0302287 10.1858 -0.00997873 10.12 0.106459C10.0542 0.233021 10.0593 0.248209 10.2972 0.798896L10.4794 1.22358L10.1661 0.975521C9.46357 0.429334 8.78576 0.0603338 8.40157 0.0147713C8.15857 -0.0156037 8.14901 -0.0105412 8.09332 0.141334C8.05788 0.227396 7.99207 0.308396 7.94144 0.318521C7.87563 0.338771 7.85032 0.394459 7.85032 0.535646C7.85032 0.712834 7.89082 0.763459 8.37119 1.22302C8.65413 1.49077 8.86676 1.71352 8.84651 1.71858C8.82626 1.71858 8.62882 1.60215 8.41676 1.4559C8.09838 1.24327 7.98701 1.19321 7.80476 1.18815C7.38007 1.18815 7.39019 1.48121 7.82501 1.79002C7.97688 1.9014 8.28007 2.16915 8.49269 2.3919L8.88701 2.79633L8.53319 2.85708C7.97688 2.95833 7.75469 3.02921 7.69901 3.14002C7.59269 3.33746 7.65851 3.39258 8.24519 3.58496C8.55851 3.69127 8.86226 3.82233 8.92751 3.87802C9.13001 4.06533 9.59013 4.33308 9.86294 4.42421C10.0401 4.4799 10.1509 4.55077 10.1864 4.62671C10.2168 4.69252 10.2927 4.76846 10.3585 4.79883C10.4395 4.83427 10.5003 4.93046 10.561 5.1324C10.6066 5.28933 10.6319 5.43052 10.6167 5.44571C10.6015 5.45583 10.3939 5.53177 10.1566 5.60265L9.72176 5.73933L10.0908 6.39633C10.4294 7.00833 10.4648 7.0539 10.5964 7.03871C10.7635 7.02352 10.7635 7.02352 10.6218 7.26146L10.5104 7.44877L10.6268 7.6614C10.7028 7.80821 10.7281 7.91902 10.7078 7.9899C10.6774 8.08609 10.6572 8.0709 10.5559 7.85321C10.4243 7.57027 10.0654 7.10002 9.84832 6.91777C9.47426 6.61458 9.31732 6.55383 8.83188 6.54877L8.37682 6.53865L8.13944 6.31083C8.01288 6.18427 7.77551 6.01777 7.61351 5.93677C7.33563 5.80008 7.28501 5.78996 6.68819 5.78996H6.05594L5.57557 6.04252C4.95851 6.3609 4.32176 6.98808 3.92238 7.66027C3.77557 7.90777 3.65463 8.08496 3.65463 8.05965C3.64957 8.03433 3.62932 7.9179 3.60907 7.80202C3.56857 7.59502 3.56857 7.58996 3.72044 7.57421C3.86726 7.55902 3.87738 7.54383 3.98313 7.10396C4.04388 6.8514 4.10969 6.59827 4.12994 6.54258C4.16032 6.44133 4.12994 6.42615 3.70526 6.31983C3.36157 6.23377 3.25019 6.18821 3.25019 6.1224C3.25019 5.96546 3.39701 5.50027 3.46732 5.41477C3.50782 5.36921 3.55338 5.28821 3.56351 5.23252C3.57363 5.17683 3.67994 5.07558 3.81101 5.00471C4.16482 4.81233 4.18507 4.78758 4.55407 4.07433C4.82182 3.55346 4.96863 3.33127 5.25663 3.02246C5.45913 2.80533 5.62563 2.6079 5.62563 2.58765C5.62563 2.50158 5.41807 2.27433 5.34269 2.27433C5.19082 2.27433 5.30219 2.18321 5.99013 1.74333C6.89519 1.17183 6.92051 1.14652 6.83444 1.08071C6.77876 1.03515 6.47051 1.20727 5.52494 1.79846C4.84263 2.22821 4.27113 2.57696 4.25594 2.57696C4.24076 2.57696 4.18001 2.42508 4.11926 2.2434L4.01294 1.9149L4.36169 1.5864C4.73069 1.23765 4.81169 1.10096 4.71551 0.984521C4.66994 0.928834 4.57882 0.954146 4.19463 1.14146C3.93701 1.26802 3.54213 1.4244 3.30982 1.50033C2.92057 1.62183 2.88513 1.62183 2.79907 1.5459C2.58644 1.35352 2.45032 1.46996 1.92438 2.2839C1.81807 2.4459 1.71682 2.57696 1.69713 2.57696C1.67182 2.57696 1.54526 2.37952 1.40913 2.13202C1.27244 1.88958 1.11607 1.64152 1.06038 1.57571C0.923694 1.4289 0.792631 1.43396 0.752131 1.58583C0.701506 1.78833 0.929319 2.71365 1.29326 3.83077C1.40969 4.17952 1.41476 4.19977 1.32869 4.24533C1.24769 4.28583 1.24263 4.31621 1.29326 4.44783C1.33376 4.55921 1.37426 4.58958 1.44007 4.56933C1.51601 4.54908 1.56157 4.60477 1.67744 4.86746C1.82426 5.1909 1.82426 5.19596 1.74326 5.48958C1.69769 5.65665 1.66226 5.79277 1.65719 5.79783C1.65719 5.8029 1.53063 5.77758 1.37932 5.73708C0.919194 5.61558 0.949569 5.58015 0.883757 6.32883C0.848319 6.69783 0.823007 7.03646 0.823007 7.08202C0.823007 7.14277 0.888819 7.17821 1.05532 7.20352L1.28763 7.2339L1.25219 7.53708C1.22182 7.77952 1.23194 7.86052 1.29776 7.9314C1.38382 8.02252 1.40913 8.57377 1.42432 10.5504L1.42938 11.2631L1.62176 11.3238C1.85969 11.4048 1.98569 11.5111 1.98569 11.6473C1.98569 11.7131 2.06669 11.8093 2.20282 11.9049C2.31926 11.9859 2.76419 12.3093 3.18382 12.6226C3.91676 13.1638 3.95219 13.1992 3.90157 13.31C3.85601 13.4163 3.86613 13.4518 3.99269 13.5778C4.11419 13.7043 4.12432 13.7246 4.04332 13.7398C3.99776 13.7499 3.83576 13.7296 3.68951 13.6993C3.35088 13.6233 2.18763 13.5676 2.19269 13.6284C2.19269 13.6537 2.43513 13.7955 2.73382 13.9417C3.03251 14.088 3.22938 14.169 3.17369 14.1189C3.11294 14.0683 2.97626 13.9518 2.87051 13.8613L2.66801 13.6891L2.96613 13.7246C3.51232 13.7904 5.25663 14.2708 5.37307 14.3923C5.44394 14.4631 5.41357 14.4682 5.09519 14.4378C4.15976 14.3518 3.75532 14.3467 3.11294 14.4075C2.72876 14.4429 2.38507 14.4885 2.34963 14.5087C2.25851 14.5543 3.05219 14.61 3.85657 14.61C4.48882 14.61 5.24707 14.7264 6.65782 15.0397L7.02682 15.1207L6.94076 15.308C6.80407 15.5859 6.57682 16.3751 6.61226 16.4302L8.80544 15.0729ZM9.12888 0.440584C9.83651 0.824771 10.3017 1.19883 10.3017 1.38108C10.2966 1.48233 10.3219 1.51777 10.3928 1.51777C10.4434 1.51777 10.5295 1.54308 10.5852 1.5684C10.6611 1.6089 10.6814 1.60383 10.6814 1.55321C10.6814 1.45196 10.5599 1.10827 10.3681 0.673459C10.2061 0.299396 10.2061 0.152584 10.3681 0.152584C10.4946 0.152584 10.5655 0.243709 10.8636 0.759521C11.1719 1.29558 11.3693 1.72533 11.4959 2.16521C11.6224 2.59496 11.6781 3.3684 11.6022 3.59115C11.5566 3.71771 11.5617 3.78858 11.6224 3.93483C11.7996 4.34433 12.0471 4.98165 12.0471 5.03227C12.0471 5.0829 11.0307 5.4114 10.8895 5.4114C10.8642 5.4114 10.8237 5.36077 10.8034 5.29496C10.687 4.91583 10.5661 4.65258 10.5053 4.65258C10.4648 4.65258 10.399 4.58677 10.3534 4.50071C10.2623 4.31846 10.1813 4.27796 9.82244 4.20258C9.63513 4.16208 9.39776 4.04565 9.08951 3.84371C8.73569 3.6114 8.56357 3.53546 8.30594 3.48483C8.12369 3.45446 7.93694 3.40383 7.89138 3.37852C7.77494 3.32283 7.77494 3.20133 7.89644 3.14115C8.00276 3.0804 9.01357 2.98927 9.18569 3.01965C9.26163 3.03483 9.38313 2.98927 9.51926 2.90321C9.75157 2.74627 9.72176 2.67596 9.47369 2.80196C9.23632 2.92852 9.13507 2.90321 8.93763 2.66021C8.83638 2.53365 8.51801 2.2254 8.22494 1.97283C7.71419 1.52283 7.62307 1.39121 7.76988 1.33552C7.85594 1.30008 8.02751 1.38615 8.57369 1.73996C8.80094 1.88677 9.12494 2.08365 9.29144 2.17477C9.56932 2.33171 9.58451 2.33677 9.49394 2.22033C9.23126 1.90196 8.51294 1.11277 8.29582 0.905771C8.05338 0.673459 7.98251 0.481084 8.12369 0.425396C8.23507 0.384896 8.47751 0.531709 9.26613 1.1229C9.73638 1.47165 9.90344 1.58302 9.73638 1.42102C9.47369 1.17352 8.81107 0.667834 8.49776 0.480521C8.40663 0.424834 8.32563 0.328646 8.31551 0.263396C8.28513 0.0710213 8.54332 0.126709 9.12944 0.440584H9.12888ZM4.51301 1.23933C4.51301 1.33046 4.41176 1.4469 4.10857 1.69946C3.88582 1.88677 3.70413 2.04315 3.70413 2.04821C3.70413 2.05327 3.75476 2.05327 3.81044 2.05327C3.89651 2.04821 3.94207 2.09883 4.01294 2.30077C4.13951 2.66471 4.13444 2.77102 3.97751 2.81152C3.87119 2.83683 3.81044 2.80646 3.64901 2.64952C3.42626 2.4324 3.40151 2.27546 3.56801 2.15396C3.66419 2.08815 3.64901 2.08815 3.48701 2.15902L3.28957 2.25015L3.14276 2.07296C3.06176 1.97677 3.00101 1.8654 3.01113 1.82546C3.01619 1.79002 3.21363 1.67358 3.45101 1.5729C3.68838 1.47221 3.98201 1.33046 4.10857 1.25452C4.40669 1.0824 4.51301 1.07733 4.51301 1.23933ZM2.84913 1.83052C2.90988 1.92165 3.14219 2.18433 3.35988 2.40708C3.75419 2.82165 3.82001 2.94821 3.67319 3.0039C3.46057 3.0849 3.21813 2.98871 2.88963 2.69565C2.77826 2.5944 2.67701 2.52352 2.66688 2.53871C2.65169 2.54883 2.63144 2.63996 2.61119 2.73615C2.59094 2.87283 2.59601 2.89308 2.64157 2.81715C2.67194 2.77158 2.71751 2.73108 2.74788 2.73108C2.84407 2.73108 3.29913 3.06465 3.29913 3.13552C3.29913 3.20133 1.79219 4.09627 1.60544 4.13677C1.51432 4.15702 1.00863 2.5944 0.897819 1.95765C0.872506 1.79565 0.882632 1.77033 0.963632 1.77033C1.08007 1.77033 1.23644 1.99758 1.55032 2.61971C1.68194 2.87733 1.79276 3.0849 1.79782 3.0849C1.80794 3.0849 1.80794 3.02415 1.79782 2.94315C1.78263 2.8419 1.86363 2.67033 2.13644 2.23552C2.54594 1.59315 2.64719 1.53802 2.84913 1.83108V1.83052ZM5.36238 2.54883C5.37757 2.66527 5.33201 2.74121 5.15538 2.92796C4.91294 3.18052 4.49276 3.7824 4.31107 4.14633C4.16932 4.42927 3.88638 4.73302 3.64338 4.85902C3.49151 4.93496 3.45607 4.99065 3.42626 5.15208C3.40601 5.26346 3.36044 5.3799 3.32501 5.40971C3.28957 5.43952 3.21869 5.61221 3.16807 5.7939C3.11744 5.97558 3.04657 6.13758 3.01113 6.15277C2.97569 6.16796 2.69276 6.11733 2.38394 6.0414L1.82257 5.89965L1.84788 5.70727C1.86307 5.60096 1.90863 5.44458 1.95419 5.35346C2.03013 5.20158 2.03013 5.18133 1.84788 4.81233C1.72638 4.55977 1.68082 4.4079 1.71119 4.3674C1.78713 4.25602 3.54663 3.18446 3.64788 3.18446C3.70357 3.18446 3.81494 3.12877 3.90044 3.0579C4.13276 2.86046 5.07832 2.38515 5.22007 2.39021C5.32132 2.40033 5.35169 2.43071 5.36182 2.54715L5.36238 2.54883ZM13.1288 5.47102C13.1086 5.72865 13.0833 5.95646 13.063 5.97671C13.0225 6.02227 10.7118 6.82608 10.6156 6.82608C10.5396 6.82608 10.0593 5.9919 10.0896 5.90077C10.1099 5.84002 12.8453 5.01596 13.0473 5.0109C13.1637 5.00583 13.1637 5.0109 13.1283 5.47102H13.1288ZM2.58138 6.20452C3.29407 6.38677 3.90101 6.55833 3.92632 6.57858C3.96682 6.61402 3.83519 7.20071 3.75926 7.32671C3.73394 7.36721 3.35988 7.33177 2.38394 7.20015C1.65101 7.0989 1.03394 7.00271 1.01876 6.98808C0.998507 6.96783 1.00863 6.71021 1.03901 6.40646C1.08457 5.93115 1.10482 5.86533 1.18582 5.86533C1.24151 5.86533 1.86813 6.01721 2.58138 6.20396V6.20452ZM7.46557 6.08302C7.92063 6.30071 8.17826 6.55833 8.27951 6.8919C8.37569 7.21533 8.38076 7.7109 8.28457 7.79696C8.23901 7.83746 8.22382 7.92859 8.23901 8.04446C8.29469 8.44384 8.01626 8.8989 7.50607 9.24765C6.87382 9.67233 6.71238 9.7179 5.34719 9.85965C4.29026 9.96596 4.13388 10.0166 3.94657 10.2641C3.88582 10.3501 3.80482 10.416 3.76938 10.416C3.67826 10.416 3.68838 10.1836 3.78457 10.0166C3.93644 9.7539 4.17382 9.65265 5.05863 9.45015C6.02444 9.2274 6.37826 9.11152 6.82319 8.86852C7.13144 8.6964 7.29344 8.54002 7.29344 8.40333C7.29344 8.36283 7.20738 8.39827 7.05607 8.49952C6.63644 8.79259 6.10544 8.94446 5.03388 9.07608C4.41176 9.15708 3.93138 9.29883 3.64338 9.48558C3.44088 9.61721 3.29969 9.64252 3.29969 9.5514C3.29969 9.52102 3.42626 9.29321 3.58263 9.04571C4.07313 8.27227 4.90732 7.60458 5.68582 7.35708C6.21682 7.19002 7.19276 7.17483 7.53644 7.33177C7.65288 7.38746 7.73894 7.40771 7.72376 7.3824C7.66807 7.29127 7.11176 7.11971 6.78832 7.0944C5.97438 7.02858 4.88201 7.42796 4.33582 7.98933C4.16876 8.16146 3.90101 8.34315 3.82001 8.34315C3.75419 8.34315 3.91113 8.05008 4.24469 7.5444C4.83644 6.65958 5.42763 6.17415 6.13076 5.99696C6.80294 5.8299 6.95988 5.84002 7.46557 6.08302V6.08302ZM12.8504 6.43177C13.0276 6.61402 13.0579 6.67421 13.0326 6.79571C13.0174 6.87671 13.0326 6.9729 13.063 7.00833C13.0984 7.04883 13.1086 7.15008 13.0833 7.2609C13.0478 7.45833 13.0782 7.45327 12.6231 7.35708C12.5269 7.33683 12.5776 7.3824 12.7801 7.49377C13.0681 7.65071 13.0833 7.67096 13.0984 7.8729C13.1136 8.0799 12.9769 8.46465 12.6333 9.20265C12.5624 9.35452 12.5016 9.54127 12.5016 9.61721C12.5016 9.68808 12.4763 9.75896 12.451 9.76908C12.3751 9.7944 12.2637 10.2495 12.1731 10.8761C12.1225 11.24 12.0516 11.5235 11.9459 11.7558C11.8401 11.9881 11.7839 12.221 11.7586 12.4685C11.7333 12.7869 11.713 12.8476 11.5966 12.9337C11.389 13.0856 9.79151 13.7628 9.69026 13.7426C9.62951 13.7325 9.54851 13.616 9.47257 13.4242C9.30044 12.9945 9.28582 12.752 9.40676 12.509C9.46244 12.4027 9.53838 12.2109 9.57382 12.0894C9.60926 11.973 9.67001 11.8621 9.70544 11.847C9.74088 11.8318 9.81682 11.7457 9.87757 11.6495C9.93326 11.5533 10.0092 11.4774 10.0446 11.4774C10.0801 11.4774 10.1307 11.6343 10.1661 11.8818C10.2016 12.0995 10.2623 12.3571 10.3028 12.4483C10.3737 12.6153 10.3737 12.6103 10.3788 12.2356C10.3889 11.7148 10.4395 11.4571 10.5357 11.4369C10.6015 11.4268 10.6218 11.4774 10.642 11.6895C10.6572 11.8363 10.7028 12.0382 10.7433 12.1344C10.8141 12.3015 10.8192 12.2913 10.7939 11.8008C10.7838 11.5179 10.7989 11.1382 10.8344 10.9312C10.9053 10.4913 10.966 10.4711 11.3097 10.7743C11.4363 10.8856 11.542 10.9616 11.542 10.9413C11.542 10.835 11.1983 10.3901 11.0059 10.2534C10.6825 10.0211 10.7129 9.96033 11.1528 9.96033C11.3502 9.96033 11.5977 9.98058 11.6939 10.011L11.8711 10.0565L11.6686 9.87933C11.5572 9.78315 11.3654 9.66671 11.2388 9.62115L11.0116 9.54015L10.8951 9.05471C10.7584 8.48827 10.7584 8.43258 10.8648 8.1294C10.9356 7.91171 10.9356 7.89202 10.8394 7.73002C10.7078 7.51796 10.7078 7.39646 10.8293 7.21421C10.8799 7.13321 10.9103 7.0269 10.9002 6.97177C10.8799 6.90596 10.9103 6.8604 10.9913 6.82496C11.2338 6.71358 12.5286 6.22308 12.5838 6.22308C12.6192 6.21802 12.7356 6.31421 12.8515 6.43065L12.8504 6.43177ZM9.20482 6.75577C9.43207 6.82158 9.54851 6.89752 9.75607 7.10452C9.89782 7.25133 10.0593 7.45833 10.12 7.57477L10.2213 7.77727L10.1099 7.75196C10.0491 7.73677 9.88713 7.6659 9.74594 7.59502C9.53838 7.48871 9.40226 7.45833 8.98769 7.43302L8.48201 7.40771L8.46682 7.08427C8.45669 6.85646 8.47188 6.74565 8.51744 6.72033C8.62376 6.65452 8.89657 6.66971 9.20482 6.75577ZM2.49026 7.33683C2.92001 7.39758 3.29913 7.47352 3.32951 7.5039C3.35988 7.53427 3.43582 7.8324 3.49657 8.16146C3.58769 8.69246 3.59276 8.77852 3.52694 8.84884C3.37001 9.02096 2.84463 10.3051 2.84463 10.5121C2.84463 10.5526 2.94082 10.4311 3.06176 10.2393C3.17819 10.0419 3.31938 9.88046 3.37001 9.87033C3.45607 9.85008 3.46113 9.8754 3.43582 10.0779C3.38013 10.457 3.51176 11.0336 3.69851 11.271C3.78963 11.3874 3.87063 11.4785 3.87569 11.4785C3.88076 11.4785 3.88076 11.4076 3.86557 11.3266C3.84026 11.1545 3.94657 11.1191 4.06301 11.2558C4.09844 11.3013 4.25032 11.4076 4.39657 11.4881C4.70988 11.6653 4.74026 11.7609 4.70482 12.3881L4.67951 12.7824L4.83138 12.6001C4.91238 12.4989 5.00857 12.3729 5.04401 12.3172C5.09463 12.2463 5.14526 12.2311 5.24651 12.2565C5.39332 12.2919 5.87876 12.7216 5.87876 12.8128C5.87876 12.8431 5.83319 12.9545 5.78257 13.0501C5.70157 13.197 5.68638 13.2982 5.71169 13.5103C5.73701 13.7578 5.72688 13.7983 5.60538 13.9198C5.53451 13.9906 5.47376 14.0767 5.47376 14.1071C5.47376 14.1324 5.43326 14.1577 5.38769 14.1577C5.23076 14.1577 4.26044 13.8798 4.26044 13.8393C4.26044 13.814 4.22501 13.7178 4.17944 13.6216C4.13388 13.5255 4.10857 13.3792 4.11869 13.2931C4.14401 13.1413 4.11869 13.116 3.48138 12.6406C3.11744 12.3729 2.68769 12.0641 2.52569 11.9583C2.20732 11.7457 2.01494 11.483 2.04532 11.3058C2.06557 11.2147 2.05038 11.1945 1.96432 11.2096C1.90357 11.2248 1.79219 11.2046 1.71176 11.1742L1.56494 11.1185L1.60038 10.7546C1.67632 9.90521 1.68138 9.58684 1.63076 8.78246C1.59532 8.21602 1.54976 7.89258 1.50419 7.82171C1.40801 7.66983 1.49407 7.22996 1.62063 7.22996C1.66619 7.22996 2.06051 7.28058 2.49026 7.33627V7.33683ZM9.40732 7.55958C9.72569 7.65577 10.2921 7.99946 10.3984 8.16652C10.5554 8.39883 10.4845 8.50515 10.2618 8.38421C10.1909 8.34877 10.2364 8.41965 10.3681 8.56646C10.5908 8.8089 10.7573 9.12277 10.7928 9.35508C10.8029 9.4614 10.7877 9.48671 10.6611 9.49683C10.5751 9.50696 10.3174 9.45127 10.0846 9.37533C9.71557 9.2589 9.41688 9.08733 8.97701 8.73296C8.94157 8.70765 8.91119 8.69752 8.91119 8.71271C8.91119 8.73296 9.08332 8.8899 9.29032 9.07158C9.61882 9.34946 9.72007 9.40515 10.0131 9.47602C10.2758 9.53677 11.0397 9.65827 11.1657 9.65827C11.1758 9.65827 11.1859 9.68865 11.1859 9.72408C11.1859 9.81521 9.83594 9.88608 9.55807 9.81015C9.05238 9.6684 8.53151 9.35002 8.34476 9.06202C8.28401 8.9709 8.25363 8.82971 8.25363 8.64746C8.25363 8.33921 8.30932 8.21265 8.42069 8.25821C8.48144 8.27846 8.48651 8.24302 8.46626 8.06584C8.45613 7.94434 8.46119 7.76265 8.47638 7.66646L8.51182 7.48421H8.83019C9.00232 7.48421 9.26501 7.51965 9.40676 7.56015L9.40732 7.55958ZM8.41619 9.3039C8.67888 9.67796 9.74594 10.3659 10.0744 10.3659C10.1504 10.3659 10.2516 10.4115 10.3017 10.4722C10.3827 10.5583 10.3878 10.5988 10.3371 10.7349C10.2814 10.8868 10.2865 10.8918 10.3574 10.7956C10.3979 10.74 10.4485 10.6336 10.4637 10.5532C10.4839 10.452 10.5194 10.4165 10.6105 10.4165C10.7573 10.4165 10.7674 10.533 10.6561 10.8108C10.5396 11.0786 10.3833 11.2254 10.2162 11.2254C10.1048 11.2254 10.0491 11.2608 9.98388 11.3823C9.82694 11.6703 9.59969 11.8981 9.34151 12.0196C9.09344 12.131 9.09344 12.1361 9.28076 12.1057C9.49844 12.0703 9.50351 12.0855 9.37188 12.4443C9.05857 13.2633 8.42632 13.6728 7.39469 13.7336C6.98519 13.7589 6.95482 13.7538 6.70676 13.607C6.51438 13.4956 6.40357 13.3848 6.29219 13.1874C6.13526 12.9095 5.53901 12.3076 5.17957 12.0753C5.06313 11.9994 4.92701 11.8481 4.86626 11.7367C4.78526 11.5747 4.72957 11.5291 4.58838 11.4993C4.38588 11.4639 4.22951 11.2867 4.06244 10.9228C3.89538 10.5538 3.91563 10.4424 4.19913 10.2652C4.54282 10.0475 4.84657 9.97215 5.59469 9.9114C6.30232 9.85571 6.72701 9.76965 7.02569 9.61833C7.13201 9.56265 7.28332 9.50696 7.36432 9.48671C7.50101 9.45127 7.50607 9.45633 7.44532 9.5424C7.40988 9.59302 7.31876 9.68415 7.24788 9.7449L7.12132 9.85627L7.31369 9.81071C7.56626 9.75502 7.88519 9.52777 8.04157 9.2949C8.10738 9.18858 8.19344 9.10252 8.22382 9.10252C8.25419 9.10758 8.34026 9.19871 8.41619 9.30502V9.3039ZM6.20163 13.2273C6.28263 13.359 6.46432 13.5356 6.62126 13.6419C6.92444 13.8444 6.91432 13.8742 6.49976 13.9299C6.03963 13.9906 6.18644 14.0666 6.68707 14.0261C7.01051 14.0008 7.14213 14.0109 7.14213 14.0514C7.14213 14.0818 7.11682 14.1071 7.08644 14.1071C6.97507 14.1071 6.19657 14.5115 6.07507 14.633C5.88269 14.8198 5.72632 14.7646 5.72632 14.5065C5.72632 14.4001 5.70101 14.2584 5.67063 14.1881C5.62001 14.0818 5.63013 14.0362 5.73138 13.895C5.81238 13.7836 5.85288 13.6526 5.85794 13.5007C5.86301 13.2684 5.94907 12.995 6.01488 12.995C6.04019 12.995 6.12119 13.1013 6.20219 13.2273H6.20163ZM9.36682 13.4653C9.45794 13.6976 9.46807 13.7685 9.41744 13.8292C9.37694 13.8798 9.36682 13.9811 9.38707 14.1223C9.41744 14.3197 9.40732 14.3495 9.29088 14.4103C9.17951 14.471 9.13901 14.466 8.94719 14.3748C8.83076 14.3191 8.58326 14.2179 8.39594 14.1571C8.04719 14.0458 7.95101 13.9546 8.17376 13.9546C8.23957 13.9546 8.48201 14.0103 8.71488 14.0761C8.94719 14.147 9.14969 14.1926 9.15982 14.1825C9.26107 14.0812 8.78576 13.854 8.47188 13.854C8.29976 13.854 8.33013 13.7679 8.53263 13.7021C8.63388 13.6666 8.81051 13.53 8.94719 13.3736C9.07882 13.2268 9.20482 13.121 9.22001 13.1413C9.23519 13.1565 9.30101 13.3033 9.36682 13.4647V13.4653ZM8.17376 14.2843C8.33069 14.3551 8.45669 14.421 8.45669 14.4311C8.45669 14.4412 8.29469 14.583 8.10288 14.7393L7.74401 15.0324L7.30413 14.8248C7.06169 14.7084 6.79844 14.6021 6.71744 14.5824C6.59594 14.552 6.58582 14.5419 6.65669 14.5014C6.84907 14.3951 7.33901 14.2387 7.59719 14.2083C7.74907 14.1881 7.88013 14.1678 7.88013 14.1628C7.88519 14.1628 8.01682 14.2134 8.17319 14.2843H8.17376ZM7.06113 10.2495L6.90926 10.4368L6.37826 10.376C5.62001 10.29 5.45801 10.295 5.34157 10.4216L5.24538 10.533L5.42257 10.5026C5.72069 10.457 6.74726 10.6089 6.85863 10.7152C6.99026 10.8468 7.03582 11.4431 6.92444 11.5696C6.84851 11.6506 6.85863 11.6709 7.07126 11.8425C7.19782 11.9437 7.32888 12.0196 7.36938 12.0045C7.45038 11.9741 7.86494 11.4279 7.80926 11.4279C7.78901 11.4279 7.67763 11.519 7.57188 11.6304C7.46613 11.7418 7.34913 11.8329 7.31426 11.8329C7.18263 11.8329 7.11682 11.6608 7.11682 11.3323C7.11682 11.1101 7.08644 10.938 7.02569 10.8114C6.92951 10.6241 6.92951 10.6241 7.05607 10.4576C7.16744 10.3108 7.27882 10.0633 7.23326 10.0633C7.22313 10.0633 7.14719 10.1493 7.06113 10.2506V10.2495ZM7.36432 10.2798C7.38963 10.4874 7.50607 10.6185 7.73838 10.7146C7.81432 10.745 7.90544 10.8361 7.94088 10.9171C7.98644 11.0235 8.05732 11.0741 8.24407 11.1196C8.70926 11.2411 8.79532 11.2462 8.89151 11.1298C8.94213 11.069 9.01301 11.0235 9.04338 11.0235C9.07882 11.0235 9.11932 10.988 9.13451 10.9425C9.16488 10.8716 9.14969 10.8716 9.02819 10.9526C8.82063 11.0893 8.17376 11.0893 8.07251 10.9526C7.95607 10.7956 7.98644 10.7602 8.20919 10.7906C8.40157 10.8159 8.93257 10.7096 9.02313 10.6235C9.04338 10.6083 8.87126 10.6033 8.64401 10.6083C8.41676 10.6185 8.07251 10.6033 7.88576 10.5678C7.54713 10.5071 7.53701 10.502 7.44082 10.295L7.34463 10.0875L7.36488 10.2798H7.36432ZM5.25832 10.8654C5.48388 10.6899 5.77807 10.7844 6.03063 10.8215C6.22807 10.7855 6.42663 10.7484 6.63026 10.7703C6.65838 10.7878 6.71576 10.821 6.74388 10.8378C6.60888 10.8519 6.47444 10.8727 6.33944 10.8873C6.19207 10.9543 6.05426 11.0566 5.88213 11.0296C5.81913 10.9903 5.75726 10.9486 5.70044 10.9014C5.55588 10.862 5.40569 10.8783 5.25776 10.8654H5.25832ZM7.63038 12.086C7.80026 12.0911 7.97519 12.0871 8.11976 11.9853C8.13438 12.0399 8.15969 12.0894 8.19457 12.1338C8.14732 12.144 8.10063 12.1546 8.05394 12.1653C7.78957 12.063 7.55669 12.2981 7.29794 12.3127C7.21132 12.3043 7.14551 12.248 7.08588 12.1906C6.98294 12.1861 6.87494 12.1738 6.78213 12.2283C6.64207 12.3031 6.48288 12.2925 6.32932 12.2863C6.37994 12.2362 6.43057 12.1856 6.48176 12.1355C6.56838 12.1344 6.65444 12.1327 6.74163 12.1305C6.77313 12.0973 6.80463 12.0635 6.83669 12.0309C6.99194 12.0106 7.14832 12.0618 7.24788 12.1856C7.38907 12.212 7.50326 12.1243 7.63038 12.086V12.086ZM7.20457 12.4927C7.31988 12.4899 7.43238 12.4651 7.54376 12.4393C7.69732 12.4561 7.84526 12.5293 7.96057 12.6322C7.86101 12.6114 7.76144 12.5928 7.66019 12.5827C7.39751 12.4657 7.15113 12.6733 6.91488 12.7661C6.84232 12.9 6.78044 13.0423 6.77876 13.1981C6.74669 13.1632 6.71519 13.1295 6.68313 13.0951C6.67469 12.9208 6.70394 12.7155 6.86426 12.6136C6.97282 12.5613 7.09094 12.531 7.20457 12.4916V12.4927Z" fill="#87A9E1"/>
</svg>