<svg width="48" height="48" viewBox="0 0 19 19" fill="none" xmlns="http://www.w3.org/2000/svg">
<path d="M8.25332 8.45333C7.98666 8.45333 8.30666 8.58667 8.65332 8.64C8.74666 8.57333 8.83332 8.49333 8.91332 8.42C8.69669 8.46763 8.47365 8.4789 8.25332 8.45333V8.45333ZM9.67999 8.1C9.83332 7.88 9.94666 7.64 9.99332 7.39333C9.95332 7.57333 9.85999 7.72667 9.77332 7.88C9.27332 8.19333 9.72666 7.7 9.77332 7.50667C9.23999 8.18 9.69999 7.90667 9.67999 8.1ZM10.2 6.73333C10.2333 6.25333 10.1067 6.4 10.0667 6.58667C10.1133 6.61333 10.1533 6.92 10.2 6.73333ZM7.25332 0.206667C7.38666 0.233333 7.55332 0.253333 7.53332 0.286667C7.68666 0.253333 7.71999 0.22 7.24666 0.206667H7.25332ZM7.53332 0.286667L7.43332 0.306667L7.52666 0.3V0.286667H7.53332ZM11.9467 6.91333C11.96 7.34 11.8133 7.54667 11.6933 7.91333L11.46 8.03333C11.2733 8.39333 11.48 8.26667 11.3467 8.55333C11.0533 8.81333 10.4533 9.36667 10.2667 9.42C10.1333 9.42 10.36 9.25333 10.3933 9.19333C9.99999 9.46 10.0733 9.59333 9.47999 9.76L9.45999 9.72C7.97999 10.4133 5.92666 9.04 5.95999 7.16C5.93999 7.27333 5.91332 7.24667 5.87999 7.29333C5.83941 6.81508 5.94521 6.33579 6.18334 5.91906C6.42147 5.50233 6.78069 5.16785 7.21332 4.96C7.61246 4.75927 8.0625 4.68249 8.50562 4.73951C8.94873 4.79653 9.36467 4.98476 9.69999 5.28C9.48684 5.0035 9.21166 4.78099 8.89667 4.63044C8.58167 4.47989 8.23569 4.40552 7.88666 4.41333C7.09999 4.42 6.36666 4.92 6.11999 5.46C5.71999 5.71333 5.67332 6.44 5.49999 6.56667C5.25999 8.3 5.93999 9.04667 7.08666 9.92667C7.26666 10.0533 7.13999 10.0667 7.16666 10.16C6.77706 9.97516 6.42982 9.71189 6.14666 9.38667C6.29999 9.60667 6.45999 9.82667 6.67999 9.99333C6.31332 9.87333 5.83332 9.12667 5.69332 9.09333C6.31332 10.2 8.21332 11.04 9.19999 10.6267C8.67505 10.6639 8.14783 10.6005 7.64666 10.44C7.42666 10.3333 7.13332 10.1 7.17999 10.06C7.82494 10.3313 8.5314 10.4224 9.22408 10.3238C9.91676 10.2252 10.5697 9.94047 11.1133 9.5C11.4067 9.26667 11.7333 8.87333 11.8267 8.86667C11.6933 9.08 11.8533 8.97333 11.7467 9.16C12.04 8.68 11.6133 8.96 12.0533 8.33333L12.2133 8.55333C12.1533 8.15333 12.7067 7.67333 12.6533 7.04667C12.78 6.84667 12.7867 7.24667 12.6533 7.69333C12.8467 7.2 12.7067 7.12667 12.7533 6.72C12.8067 6.85333 12.8733 7 12.9067 7.14C12.7867 6.67333 13.04 6.34 13.0933 6.07333C13.0333 6.04 12.9067 6.27333 12.88 5.72C12.88 5.47333 12.9467 5.58667 12.9733 5.53333C12.92 5.5 12.8 5.32 12.72 4.96C12.7733 4.87333 12.8667 5.18 12.9467 5.18667C12.8933 4.90667 12.8133 4.68667 12.8133 4.46667C12.5867 4.01333 12.7333 4.53333 12.5467 4.26667C12.32 3.54 12.7467 4.1 12.7733 3.77333C13.1333 4.28667 13.3333 5.08 13.4267 5.41333C13.36 5.01333 13.24 4.61333 13.1 4.24C13.2067 4.28667 12.9267 3.41333 13.24 3.99333C12.8251 2.74485 11.9535 1.6994 10.8 1.06667C10.92 1.18 11.08 1.32667 11.02 1.34667C10.52 1.04667 10.6067 1.02667 10.5333 0.9C10.1267 0.733333 10.1 0.913333 9.82666 0.9C9.05332 0.486667 8.90666 0.533333 8.19999 0.266667L8.23332 0.42C7.71999 0.253333 7.63332 0.486667 7.07999 0.42C7.04666 0.393333 7.25999 0.326667 7.43332 0.3C6.93999 0.366667 6.96666 0.206667 6.47999 0.32C6.59332 0.233333 6.71999 0.18 6.84666 0.106667C6.44666 0.133333 5.88666 0.34 6.05999 0.153333C5.39999 0.453333 4.23332 0.866667 3.57999 1.48L3.55999 1.33333C3.25999 1.69333 2.25332 2.40667 2.17332 2.87333L2.08666 2.89333C1.93332 3.16 1.83332 3.46 1.70666 3.73333C1.50666 4.08 1.40666 3.86667 1.43999 3.92C1.03999 4.73333 0.839989 5.42 0.666656 5.98667C0.786656 6.16667 0.666656 7.08667 0.713322 7.82667C0.513322 11.4667 3.27332 15.0067 6.28666 15.8267C6.73332 15.98 7.38666 15.98 7.94666 15.9933C7.28666 15.8067 7.19999 15.8933 6.55999 15.6667C6.09332 15.4533 5.99332 15.2 5.66666 14.9133L5.79999 15.1467C5.15332 14.92 5.41999 14.8667 4.89332 14.7L5.03332 14.52C4.82666 14.5 4.47999 14.1667 4.38666 13.98L4.15999 13.9867C3.88666 13.6533 3.73999 13.4067 3.75332 13.2133L3.67999 13.3467C3.59332 13.2067 2.66666 12.08 3.14666 12.34C3.05999 12.26 2.93999 12.2067 2.81332 11.9733L2.90666 11.86C2.67332 11.5667 2.47999 11.18 2.49332 11.06C2.62666 11.22 2.70666 11.26 2.79332 11.28C2.20666 9.83333 2.17332 11.2 1.72666 9.81333L1.82666 9.8C1.75999 9.69333 1.70666 9.57333 1.65332 9.46L1.69332 9.06C1.27332 8.56667 1.57332 6.99333 1.63332 6.12667C1.67999 5.76667 1.98666 5.39333 2.21999 4.80667L2.07999 4.78C2.34666 4.30667 3.63999 2.86667 4.23999 2.94C4.52666 2.57333 4.17999 2.94 4.11999 2.84667C4.75999 2.18667 4.95999 2.38 5.38666 2.26C5.85332 1.99333 4.98666 2.36667 5.20666 2.16C6.00666 1.96 5.77332 1.69333 6.81999 1.59333C6.92666 1.66 6.55999 1.68667 6.47332 1.76667C7.13999 1.44 8.57332 1.52 9.51332 1.94667C10.6 2.46 11.82 3.95333 11.8667 5.36667L11.92 5.38C11.8933 5.94667 12.0067 6.59333 11.8067 7.18667L11.94 6.90667L11.9467 6.91333ZM5.35999 8.82L5.32666 9.00667C5.49999 9.24 5.63999 9.49333 5.85999 9.68C5.69999 9.36667 5.57999 9.24 5.35999 8.81333V8.82ZM5.77332 8.8C5.67999 8.7 5.62666 8.57333 5.56666 8.45333C5.61999 8.66667 5.73999 8.85333 5.85332 9.04L5.77332 8.8V8.8ZM13.0667 7.21333L13.02 7.31333C12.9533 7.82 12.7933 8.32 12.56 8.78667C12.8267 8.3 12.9933 7.76 13.06 7.21333H13.0667ZM7.29999 0.08C7.47999 0.0133333 7.73999 0.0466667 7.93332 0C7.68666 0.02 7.43999 0.0333333 7.19999 0.0666667L7.29999 0.08V0.08ZM1.00666 3.42667C1.05332 3.80667 0.719989 3.96 1.07999 3.70667C1.27999 3.26667 1.00666 3.58667 1.01332 3.42667H1.00666ZM0.586656 5.2C0.666656 4.94 0.686656 4.78667 0.719989 4.64C0.486656 4.93333 0.606656 4.99333 0.586656 5.19333" fill="#87A9E1"/>
</svg>