<svg width="48" height="48" viewBox="0 0 15 16" fill="none" xmlns="http://www.w3.org/2000/svg">
<path d="M6.99912 10.3974H0.370609C0.121571 9.62011 -0.00340986 8.8099 7.07399e-05 7.99536C7.07399e-05 7.15665 0.123583 6.35149 0.370609 5.5933H11.2534C11.5763 5.59242 11.8961 5.65394 12.1946 5.77434C12.493 5.89474 12.7642 6.07164 12.9925 6.29487C13.2208 6.5181 13.4017 6.78325 13.5248 7.07508C13.648 7.36691 13.7109 7.67967 13.71 7.99536C13.7118 8.3096 13.6502 8.6211 13.5286 8.91202C13.4071 9.20293 13.2281 9.46754 13.0018 9.69068C12.7755 9.91382 12.5064 10.0911 12.2099 10.2124C11.9134 10.3337 11.5954 10.3965 11.274 10.3974H6.99912ZM6.69034 11.2026H0.672529C1.30671 12.6247 2.35419 13.8332 3.68487 14.6782C5.01866 15.5443 6.58512 16.0042 8.18622 16C11.0339 16 13.5247 14.5775 15 12.4439C14.613 12.0513 14.1495 11.7387 13.6368 11.5243C13.1241 11.31 12.5727 11.1983 12.0151 11.1959L6.69034 11.2026ZM12.0151 4.79485C13.1816 4.79485 14.2452 4.31176 15 3.55357C14.1811 2.36012 13.0494 1.40362 11.7232 0.784028C10.397 0.164433 8.92494 -0.095525 7.46087 0.0313169C5.99681 0.158159 4.59445 0.667145 3.40032 1.50509C2.20618 2.34304 1.26411 3.4792 0.672529 4.79485H6.66976H12.0151Z" fill="#87A9E1"/>
</svg>