<svg width="48" height="48" viewBox="0 0 15 21" fill="none" xmlns="http://www.w3.org/2000/svg">
<path d="M1.5127 4.1127C1.5127 3.28716 1.84064 2.49544 2.42439 1.91169C3.00813 1.32794 3.79986 1 4.6254 1H7.73811V7.22541H4.6254C3.79986 7.22541 3.00813 6.89746 2.42439 6.31372C1.84064 5.72997 1.5127 4.93825 1.5127 4.1127Z" stroke="#87A9E1" stroke-width="2" stroke-linecap="round" stroke-linejoin="round"/>
<path d="M7.73828 1H10.851C11.2598 1 11.6645 1.08051 12.0422 1.23694C12.4198 1.39337 12.763 1.62265 13.052 1.91169C13.341 2.20073 13.5703 2.54387 13.7268 2.92152C13.8832 3.29917 13.9637 3.70394 13.9637 4.1127C13.9637 4.52147 13.8832 4.92623 13.7268 5.30389C13.5703 5.68154 13.341 6.02468 13.052 6.31372C12.763 6.60276 12.4198 6.83204 12.0422 6.98847C11.6645 7.1449 11.2598 7.22541 10.851 7.22541H7.73828V1Z" stroke="#87A9E1" stroke-width="2" stroke-linecap="round" stroke-linejoin="round"/>
<path d="M7.73828 10.3382C7.73828 9.9294 7.81879 9.52464 7.97522 9.14699C8.13165 8.76934 8.36093 8.4262 8.64997 8.13715C8.93901 7.84811 9.28216 7.61883 9.65981 7.4624C10.0375 7.30598 10.4422 7.22546 10.851 7.22546C11.2598 7.22546 11.6645 7.30598 12.0422 7.4624C12.4198 7.61883 12.763 7.84811 13.052 8.13715C13.341 8.4262 13.5703 8.76934 13.7268 9.14699C13.8832 9.52464 13.9637 9.9294 13.9637 10.3382C13.9637 10.7469 13.8832 11.1517 13.7268 11.5293C13.5703 11.907 13.341 12.2501 13.052 12.5392C12.763 12.8282 12.4198 13.0575 12.0422 13.2139C11.6645 13.3704 11.2598 13.4509 10.851 13.4509C10.4422 13.4509 10.0375 13.3704 9.65981 13.2139C9.28216 13.0575 8.93901 12.8282 8.64997 12.5392C8.36093 12.2501 8.13165 11.907 7.97522 11.5293C7.81879 11.1517 7.73828 10.7469 7.73828 10.3382V10.3382Z" stroke="#87A9E1" stroke-width="2" stroke-linecap="round" stroke-linejoin="round"/>
<path d="M1.5127 16.5635C1.5127 15.738 1.84064 14.9462 2.42439 14.3625C3.00813 13.7787 3.79986 13.4508 4.6254 13.4508H7.73811V16.5635C7.73811 17.3891 7.41016 18.1808 6.82641 18.7645C6.24267 19.3483 5.45094 19.6762 4.6254 19.6762C3.79986 19.6762 3.00813 19.3483 2.42439 18.7645C1.84064 18.1808 1.5127 17.3891 1.5127 16.5635Z" stroke="#87A9E1" stroke-width="2" stroke-linecap="round" stroke-linejoin="round"/>
<path d="M1.5127 10.3382C1.5127 9.51263 1.84064 8.7209 2.42439 8.13715C3.00813 7.55341 3.79986 7.22546 4.6254 7.22546H7.73811V13.4509H4.6254C3.79986 13.4509 3.00813 13.1229 2.42439 12.5392C1.84064 11.9554 1.5127 11.1637 1.5127 10.3382Z" stroke="#87A9E1" stroke-width="2" stroke-linecap="round" stroke-linejoin="round"/>
</svg>