 <svg width="48" height="48" viewBox="0 0 16 16" fill="none" xmlns="http://www.w3.org/2000/svg">
<path fill-rule="evenodd" clip-rule="evenodd" d="M15.5345 7.2114L8.62163 0.298657C8.22359 -0.0995523 7.57795 -0.0995523 7.17957 0.298657L5.74422 1.73435L7.56502 3.55532C7.98822 3.4123 8.47344 3.50828 8.81083 3.84549C9.14993 4.18494 9.24505 4.6743 9.09841 5.09905L10.8536 6.85403C11.2783 6.70757 11.768 6.80216 12.1071 7.14196C12.581 7.61564 12.581 8.38363 12.1071 8.85765C11.6329 9.33185 10.8651 9.33185 10.3907 8.85765C10.0344 8.50097 9.94618 7.97715 10.1269 7.5381L8.48999 5.90133V10.2086C8.60543 10.2658 8.71451 10.3419 8.81083 10.4379C9.28468 10.9118 9.28468 11.6796 8.81083 12.1541C8.33697 12.6278 7.56864 12.6278 7.09496 12.1541C6.62111 11.6796 6.62111 10.9118 7.09496 10.4379C7.21213 10.3209 7.34774 10.2323 7.49248 10.1731V5.82603C7.34774 5.76692 7.21248 5.67905 7.09496 5.56136C6.73604 5.20261 6.64971 4.67568 6.83391 4.23491L5.03878 2.43961L0.298528 7.17935C-0.0995092 7.57791 -0.0995092 8.22355 0.298528 8.62176L7.21179 15.5345C7.60983 15.9325 8.2553 15.9325 8.65385 15.5345L15.5345 8.65381C15.9329 8.2556 15.9329 7.60961 15.5345 7.2114Z" fill="#87A9E1"/>
</svg>