<svg width="48" height="48" viewBox="0 0 16 16" fill="none" xmlns="http://www.w3.org/2000/svg">
<path d="M0 0V15.2459H15.2459V0H0ZM11.6048 6.9055C12.0712 6.9055 12.4688 6.99518 12.7976 7.17454C13.1264 7.35391 13.4044 7.64687 13.6316 8.05342L12.5196 8.77088C12.4 8.55564 12.2685 8.40019 12.125 8.30453C11.9815 8.20887 11.8081 8.16104 11.6048 8.16104C11.4015 8.16104 11.2371 8.21784 11.1116 8.33144C10.986 8.44503 10.9232 8.59151 10.9232 8.77088C10.9232 8.97416 10.989 9.14156 11.1205 9.2731C11.2401 9.38071 11.4673 9.50627 11.8021 9.64976L12.1608 9.79325C12.8185 10.0802 13.2849 10.3732 13.5599 10.6721C13.8947 11.0309 14.0621 11.4912 14.0621 12.0532C14.0621 12.675 13.8349 13.1653 13.3805 13.524C12.95 13.8708 12.3821 14.0442 11.6766 14.0442C11.0428 14.0442 10.4987 13.9067 10.0444 13.6316C9.62584 13.3686 9.30299 13.0158 9.0758 12.5734L10.2417 11.9097C10.4091 12.1848 10.5944 12.394 10.7977 12.5375C11.0368 12.693 11.3238 12.7707 11.6586 12.7707C11.9456 12.7707 12.1788 12.7049 12.3581 12.5734C12.5375 12.4419 12.6272 12.2685 12.6272 12.0532C12.6272 11.838 12.5375 11.6586 12.3581 11.5151C12.2266 11.4195 11.9695 11.2879 11.5869 11.1205L11.2282 10.9591C10.6542 10.72 10.2357 10.4509 9.97261 10.152C9.66172 9.80521 9.50627 9.3568 9.50627 8.80675C9.50627 8.2567 9.69759 7.80231 10.0802 7.44359C10.4629 7.08486 10.9711 6.9055 11.6048 6.9055ZM6.86962 6.99518H8.30453V11.8918C8.30453 12.6093 8.10125 13.1533 7.6947 13.524C7.32401 13.8708 6.80984 14.0442 6.15217 14.0442C5.61408 14.0442 5.15371 13.9186 4.77107 13.6675C4.44822 13.4403 4.19113 13.1294 3.99981 12.7348L5.18361 12.0353C5.31514 12.2864 5.43472 12.4598 5.54233 12.5554C5.68582 12.6989 5.87117 12.7707 6.09836 12.7707C6.34947 12.7707 6.53481 12.7109 6.65439 12.5913C6.79788 12.4478 6.86962 12.2087 6.86962 11.8739V6.99518Z" fill="#87A9E1"/>
</svg>