<svg width="48" height="48" viewBox="0 0 14 14" fill="none" xmlns="http://www.w3.org/2000/svg">
<path d="M8.62632 10.7357C8.72954 10.8848 8.79262 10.8733 8.87288 10.8389C8.95313 10.8045 13.0823 9.41092 13.2084 9.36508C13.3346 9.3192 13.2945 9.27904 13.2544 9.21592C13.2142 9.15285 11.8378 7.28329 11.769 7.17434C11.7002 7.06538 11.6657 7.0883 11.5568 7.12272L7.17969 8.26168C7.17969 8.26168 8.52309 10.5865 8.62632 10.7357ZM13.5583 8.83191V6.64359C13.0658 6.7748 12.4429 6.94068 12.1971 7.00608C12.568 7.5024 13.1479 8.27913 13.5583 8.83191ZM12.1928 4.31086C12.1254 4.32619 10.6317 4.59613 10.5396 4.60836C10.4477 4.62065 10.4783 4.67278 10.5151 4.72491L11.8296 6.52844C11.8296 6.52844 13.4368 6.12973 13.5349 6.10826C13.5429 6.1065 13.5507 6.10464 13.5583 6.10273V5.86392C13.2661 5.49349 12.4702 4.4849 12.4014 4.39066C12.3187 4.27716 12.2603 4.29558 12.1928 4.31086V4.31086Z" fill="#87A9E1"/>
<path d="M2.79427 1.47791C3.11774 1.4632 3.14726 1.5368 3.28935 1.74754L6.85947 7.71625L11.3485 6.64088C11.0998 6.28831 9.9707 4.68751 9.86153 4.53473C9.7389 4.36296 9.86463 4.28322 10.064 4.24951C10.2633 4.21576 11.9809 3.92744 12.1281 3.90597C12.2754 3.8845 12.392 3.83237 12.6312 4.12069C12.7536 4.2682 13.1686 4.78495 13.558 5.26935V2.47746C13.558 1.79502 13.3157 1.21148 12.8311 0.726876C12.3465 0.242326 11.763 0 11.0805 0H2.82235C2.13991 0 1.55637 0.242326 1.07177 0.726876C0.793828 1.00492 0.595993 1.31548 0.477539 1.65856C1.28674 1.59208 2.56795 1.48823 2.79432 1.47791H2.79427Z" fill="#87A9E1"/>
<path d="M9.03075 11.539C8.65221 11.6537 8.48246 11.7106 8.2359 11.3665C8.05122 11.1088 7.05255 9.31008 6.56289 8.42335C5.63617 8.66604 3.94019 9.10868 3.4511 9.2262C2.97378 9.34089 2.7699 9.05469 2.6915 8.87833C2.63653 8.75456 1.23708 5.73732 0.344727 3.80139V10.7357C0.344727 11.4182 0.587053 12.0016 1.0716 12.4863C1.5562 12.9708 2.13975 13.2132 2.82219 13.2132H11.0804C11.7628 13.2132 12.3464 12.9708 12.831 12.4863C13.3155 12.0016 13.5578 11.4182 13.5578 10.7357V9.92118C12.5441 10.292 9.28577 11.4617 9.03075 11.539Z" fill="#87A9E1"/>
<path d="M3.4625 8.53114C3.59669 8.50043 6.11095 7.89872 6.16463 7.88721C6.21831 7.8757 6.25279 7.84504 6.19529 7.74542C6.13779 7.64581 2.8438 1.96004 2.8438 1.96004C2.8134 1.90786 2.82207 1.89047 2.73944 1.8948C2.66579 1.89872 0.801964 2.06502 0.370474 2.10105C0.357737 2.19229 0.349794 2.28413 0.34668 2.3762C0.784725 3.27299 3.29893 8.45821 3.31302 8.50043C3.32835 8.54647 3.32835 8.5618 3.4625 8.53114V8.53114Z" fill="#87A9E1"/>
</svg>