<svg width="48" height="48" viewBox="0 0 14 15" fill="none" xmlns="http://www.w3.org/2000/svg">
<path d="M13.5686 11.5618L7.27669 15V12.3214L11.1972 10.2373L13.5686 11.5618ZM14 11.185V3.99207L11.6966 5.27748V9.89958L14 11.185ZM0.431373 11.5618L6.72331 15V12.3214L2.80283 10.2373L0.431373 11.5618ZM0 11.185V3.99207L2.30338 5.27748V9.89958L0 11.185ZM0.269608 3.52643L6.72331 0V2.59038L2.55882 4.80391L0.269608 3.52643ZM13.7304 3.52643L7.27669 0V2.59038L11.4412 4.80391L13.7304 3.52643ZM6.72331 11.7135L2.85675 9.65698V5.58562L6.72331 7.74366V11.7135ZM7.27669 11.7135L11.1432 9.65698V5.58562L7.27669 7.74366V11.7135ZM3.11765 5.11522L7.00109 3.05338L10.8845 5.11522L7.00109 7.28171L3.11765 5.11522Z" fill="#87A9E1"/>
</svg>