<svg width="48" height="48" viewBox="0 0 23 16" fill="none" xmlns="http://www.w3.org/2000/svg">
<path d="M6.71792 5.72705H5.81325L5.31971 9.08293H6.12279C6.65562 9.08293 7.05237 8.94986 7.31304 8.68499C7.57371 8.41885 7.74908 7.97655 7.84012 7.35556C7.92829 6.75992 7.88804 6.33917 7.72129 6.09457C7.55358 5.84998 7.22008 5.72705 6.71792 5.72705V5.72705ZM11.5 0C5.14913 0 0 3.58146 0 7.99937C0 12.4173 5.14913 16 11.5 16C17.8509 16 23 12.4173 23 7.99937C23 3.58146 17.8509 0 11.5 0ZM8.37583 9.44285C8.12571 9.75968 7.82479 9.99794 7.49704 10.1411C7.17504 10.278 6.76392 10.349 6.26558 10.349H5.13379L4.82042 12.4794H3.49983L4.67858 4.46226H7.21817C7.98196 4.46226 8.53875 4.72713 8.8895 5.25814C9.24025 5.78788 9.34567 6.528 9.20575 7.47849C9.15216 7.8546 9.05348 8.21697 8.91346 8.55192C8.77642 8.87509 8.59721 9.17291 8.37583 9.44285ZM12.2322 10.349L12.7525 6.80174C12.8129 6.39873 12.7899 6.12246 12.6874 5.97671C12.5848 5.8297 12.3654 5.7562 12.029 5.7562H10.9825L10.3078 10.3503H8.99683L10.1756 2.33188H11.4856L11.1722 4.46352H12.3395C13.0745 4.46352 13.5805 4.63335 13.8594 4.97172C14.1383 5.3101 14.2217 5.85885 14.1115 6.61798L13.5633 10.349H12.2322V10.349ZM19.5126 7.47849C19.4599 7.85492 19.3612 8.21747 19.2203 8.55192C19.0833 8.87509 18.9041 9.17291 18.6827 9.44285C18.4324 9.75872 18.1323 9.99722 17.8039 10.1411C17.4819 10.278 17.0708 10.349 16.5715 10.349H15.4407L15.1273 12.4806H13.8067L14.9855 4.46352H17.5241C18.2879 4.46352 18.8447 4.7284 19.1954 5.25941C19.5462 5.78788 19.6525 6.528 19.5126 7.47849V7.47849ZM17.0258 5.72705H16.122L15.6275 9.08293H16.4306C16.9644 9.08293 17.3612 8.94986 17.6209 8.68499C17.8815 8.41885 18.0569 7.97655 18.1489 7.35556C18.2371 6.75992 18.1959 6.33917 18.0291 6.09457C17.8624 5.84998 17.527 5.72705 17.0258 5.72705V5.72705Z" fill="#87A9E1"/>
</svg>