<svg width="48" height="48" viewBox="0 0 21 21" fill="none" xmlns="http://www.w3.org/2000/svg">
<path d="M0.246094 10.1636C0.246094 14.1863 2.58393 17.6634 5.97469 19.3106L1.12622 6.02742C0.562463 7.2914 0.246094 8.69016 0.246094 10.1636ZM17.271 9.65093C17.271 8.39439 16.8196 7.52484 16.433 6.84799C15.9179 6.01034 15.4349 5.30192 15.4349 4.4642C15.4349 3.52993 16.143 2.66038 17.1414 2.66038C17.1867 2.66038 17.2296 2.66586 17.2731 2.66864C15.4651 1.01179 13.0556 0 10.4097 0C6.85888 0 3.73517 1.82205 1.91765 4.58075C2.15651 4.58861 2.38133 4.59349 2.57187 4.59349C3.63468 4.59349 5.2809 4.46427 5.2809 4.46427C5.8286 4.43202 5.89297 5.23714 5.34568 5.30192C5.34568 5.30192 4.79486 5.36635 4.18272 5.39827L7.88368 16.4077L10.108 9.73698L8.52462 5.3982C7.97692 5.36629 7.45876 5.30185 7.45876 5.30185C6.91106 5.26932 6.97509 4.43195 7.52313 4.4642C7.52313 4.4642 9.20126 4.59342 10.2 4.59342C11.2628 4.59342 12.909 4.4642 12.909 4.4642C13.4567 4.43195 13.5215 5.23707 12.9738 5.30185C12.9738 5.30185 12.4224 5.36629 11.8109 5.3982L15.4837 16.3236L16.4975 12.9367C17.0129 11.6158 17.271 10.5208 17.271 9.65093ZM10.5883 11.0527L7.53858 19.9139C8.4492 20.1816 9.41227 20.3279 10.4097 20.3279C11.5935 20.3279 12.7287 20.1236 13.785 19.7517C13.7582 19.7081 13.7329 19.662 13.7124 19.6116L10.5883 11.0527ZM19.3285 5.28782C19.3723 5.61131 19.397 5.95851 19.397 6.33281C19.397 7.36377 19.2037 8.5232 18.6238 9.97306L15.5196 18.9484C18.5415 17.1867 20.5733 13.9131 20.5733 10.1637C20.5733 8.39643 20.1215 6.73517 19.3285 5.28782Z" fill="#87A9E1"/>
</svg>