<svg width="48" height="48" viewBox="0 0 11 12" fill="none" xmlns="http://www.w3.org/2000/svg">
<path d="M7.32875 0.00125C6.72437 0.001875 6.1325 0.055 5.5575 0.15625L5.61875 0.1475C4.10437 0.415 3.83 0.975 3.83 2.0075V3.37125H7.40875V3.82562H2.4875C2.475 3.82562 2.46063 3.825 2.44625 3.825C1.36063 3.825 0.45625 4.59937 0.254375 5.62562L0.251875 5.64C0.091875 6.185 0 6.81125 0 7.45875C0 8.10625 0.091875 8.7325 0.26375 9.32437L0.251875 9.27687C0.50625 10.3362 1.11375 11.0906 2.15188 11.0906H3.3825V9.45562C3.41063 8.235 4.39625 7.25375 5.61625 7.2325H5.61812H9.1925C10.1825 7.22437 10.9819 6.42063 10.9819 5.42938C10.9819 5.42375 10.9819 5.41875 10.9819 5.41313V5.41375V2.00625C10.9169 1.03063 10.1606 0.25 9.20187 0.146875L9.19312 0.14625C8.65187 0.053125 8.02875 0 7.39375 0C7.37125 0 7.34937 0 7.32687 0H7.33L7.32875 0.00125ZM5.39375 1.09812H5.40437C5.78125 1.09812 6.08625 1.40375 6.08625 1.78C6.08625 2.15625 5.78062 2.46188 5.40437 2.46188C5.02875 2.46188 4.72375 2.1575 4.7225 1.78188C4.7225 1.78063 4.7225 1.77875 4.7225 1.77688C4.7225 1.40438 5.0225 1.10187 5.39375 1.09812H5.39437H5.39375Z" fill="#87A9E1"/>
</svg>