<svg width="48" height="48" viewBox="0 0 23 24" fill="none" xmlns="http://www.w3.org/2000/svg">
<path d="M21.9934 12C21.9934 10.6 20.5559 9.30005 18.16 8.40005L17.7288 8.25005V8.05005C18.2559 5.30005 17.8725 3.25005 16.6746 2.50005C15.4767 1.75005 13.7038 2.45005 11.7871 4.20005L11.4996 4.50005L11.4038 4.40005H11.3079C9.34336 2.50005 7.42669 1.85005 6.22878 2.55005C5.03086 3.25005 4.69544 5.20005 5.17461 7.75005C5.22502 7.91228 5.25718 8.08007 5.27044 8.25005L4.74336 8.45005C2.39544 9.30005 1.00586 10.6 1.00586 12C1.00586 13.4 2.53919 14.8 4.93503 15.7L5.27044 15.8C5.21124 15.9771 5.17891 16.1626 5.17461 16.35C4.69544 18.85 5.12669 20.7501 6.22878 21.4501C7.33086 22.1501 9.34336 21.5 11.26 19.75L11.5475 19.5L11.9309 19.9C13.2725 21.1 14.6142 21.75 15.6684 21.75C16.0402 21.7589 16.4065 21.6547 16.7225 21.4501C17.9204 20.7501 18.3517 18.7 17.8246 16.1V16C17.8039 15.9178 17.7879 15.8343 17.7767 15.75H17.9204C20.46 14.8 21.9934 13.45 21.9934 12ZM20.6038 12C20.6038 12.6 19.5496 13.65 17.4892 14.35H17.3934C17.1422 13.5458 16.838 12.7605 16.4829 12C16.8184 11.2 17.1059 10.4 17.3454 9.65005L17.7288 9.75005C19.6454 10.45 20.6038 11.4 20.6038 12ZM12.8413 18.8L12.4579 18.5C13.0066 17.8657 13.5186 17.1978 13.9913 16.5L16.435 16.1C16.4829 16.2 16.4829 16.3 16.5309 16.35C16.7016 17.2557 16.734 18.1838 16.6267 19.1V19.1C16.5594 19.5382 16.3576 19.9418 16.0517 20.25C15.5725 20.55 14.2788 20.15 12.8413 18.8ZM12.2184 16.6L11.5475 17.5L10.7809 16.6H12.2184ZM5.65378 9.60005C5.89461 10.4244 6.19908 11.227 6.56419 12C6.19878 12.7902 5.89435 13.6094 5.65378 14.45L5.36628 14.35C4.52719 14.0737 3.7465 13.6324 3.06628 13.05C2.89014 12.9339 2.73939 12.7804 2.62382 12.5995C2.50825 12.4186 2.43044 12.2144 2.39544 12C2.39544 11.4 3.35378 10.45 5.17461 9.80005L5.65378 9.60005ZM10.7809 7.40005L11.4996 6.55005L12.2184 7.40005H10.7809V7.40005ZM16.0517 3.75005C16.5788 4.05005 16.8663 5.55005 16.435 7.75005C16.4372 7.77714 16.4341 7.80441 16.4259 7.8302C16.4176 7.85599 16.4044 7.87976 16.3871 7.90005L13.9913 7.50005C13.5186 6.80225 13.0066 6.1344 12.4579 5.50005L12.7454 5.25005C14.2788 3.85005 15.5246 3.45005 16.0517 3.75005V3.75005ZM8.04961 9.05005L7.66628 9.70005L7.33086 10.35C7.18711 10 7.09128 9.65005 6.94753 9.25005L8.04961 9.05005ZM6.94753 14.75C7.09128 14.4 7.18711 14.05 7.33086 13.65L7.66628 14.3L8.04961 14.95L6.94753 14.75ZM14.9496 12C14.7058 12.5482 14.4339 13.0823 14.135 13.6C13.8475 14.15 13.5121 14.65 13.2246 15.15H9.77461C9.43919 14.6 9.10378 14.1 8.86419 13.6C8.563 13.0837 8.29101 12.5495 8.04961 12C8.28211 11.4461 8.55441 10.9112 8.86419 10.4C9.13949 9.88202 9.44348 9.38117 9.77461 8.90005C10.9226 8.80011 12.0766 8.80011 13.2246 8.90005C13.56 9.40005 13.8475 9.90005 14.135 10.4C14.4448 10.9112 14.7171 11.4461 14.9496 12V12ZM15.3329 9.70005L14.9496 9.05005L16.0517 9.30005C15.945 9.65804 15.817 10.0087 15.6684 10.35L15.3329 9.70005ZM14.9496 14.95L15.3329 14.3L15.6684 13.6L16.0996 14.75L14.9496 14.95ZM10.4934 5.45005H10.5413L9.00794 7.45005L6.61211 7.85005C6.56419 7.70005 6.56419 7.60005 6.51628 7.45005C6.13294 5.40005 6.42044 4.00005 6.89961 3.75005C7.02682 3.66286 7.18023 3.62729 7.33086 3.65005C8.00169 3.65005 9.15169 4.15005 10.4454 5.35005L10.4934 5.45005ZM6.51628 16.6C6.52502 16.4457 6.55737 16.2938 6.61211 16.15L9.05586 16.5C9.51654 17.2072 10.0292 17.8758 10.5892 18.5L10.4934 18.6L10.3975 18.7001C9.74426 19.3315 8.9793 19.824 8.14544 20.15C7.96251 20.25 7.76211 20.3104 7.55626 20.3276C7.35042 20.3448 7.14336 20.3184 6.94753 20.25C6.42044 19.95 6.13294 18.6 6.51628 16.6Z" fill="#87A9E1"/>
<path d="M11.5 9.80001C11.0811 9.79007 10.6689 9.9106 10.3159 10.1462C9.96295 10.3818 9.68528 10.7219 9.51833 11.1229C9.35138 11.5239 9.30273 11.9677 9.37859 12.3977C9.45445 12.8277 9.65137 13.2244 9.94423 13.5371C10.2371 13.8498 10.6126 14.0643 11.0228 14.1534C11.4331 14.2424 11.8594 14.2018 12.2474 14.0369C12.6355 13.8719 12.9676 13.5901 13.2015 13.2273C13.4354 12.8645 13.5603 12.4372 13.5604 12C13.5606 11.4251 13.345 10.873 12.9599 10.4618C12.5749 10.0506 12.0508 9.81307 11.5 9.80001V9.80001Z" fill="#87A9E1"/>
</svg>