<svg width="48" height="48" viewBox="0 0 20 15" fill="none" xmlns="http://www.w3.org/2000/svg">
<path d="M17.2168 8.62286C17.2412 8.62223 17.27 8.62161 17.2994 8.62161C17.8209 8.62161 18.3142 8.74286 18.7519 8.95912L18.7325 8.95037C19.1315 9.14476 19.4591 9.43227 19.6961 9.78478L19.7017 9.79353C19.8887 10.066 20 10.4029 20 10.7654C20 10.7917 19.9994 10.818 19.9981 10.8436V10.8398C19.9787 11.2017 19.8143 11.5211 19.5617 11.7449L19.5604 11.7461C19.4222 11.8817 19.2553 11.988 19.0696 12.0555L19.0602 12.0586C18.956 12.0795 18.8987 12.0638 18.8882 12.0118C18.8778 11.9597 18.9247 11.9024 19.0289 11.8399C19.3116 11.6686 19.516 11.3923 19.5904 11.0667L19.5923 11.0586C19.5942 11.0323 19.5954 11.0017 19.5954 10.9705C19.5954 10.7761 19.5492 10.5923 19.4673 10.4298L19.4704 10.4367C19.3347 10.1535 19.1321 9.92104 18.8826 9.75291L18.8763 9.74916C18.503 9.50915 18.0553 9.35164 17.5739 9.31226L17.5639 9.31164C17.4 9.28726 17.2112 9.27351 17.0186 9.27351C16.5177 9.27351 16.0394 9.36789 15.5992 9.53977L15.6255 9.5304C15.7161 9.74228 15.773 9.98792 15.7811 10.2454V10.2486C15.7711 10.7767 15.4873 11.2361 15.0652 11.4924L15.0583 11.4961C14.8645 11.6336 14.6431 11.7542 14.4074 11.848L14.3855 11.8555C14.2423 11.9255 14.0741 11.9661 13.8965 11.9661C13.8759 11.9661 13.8559 11.9655 13.8359 11.9642H13.839C13.4434 11.8813 13.3496 11.5376 13.5576 10.933C13.6483 10.6698 13.7752 10.4417 13.9359 10.2411L13.9322 10.2454C14.1379 9.97667 14.3636 9.74103 14.6131 9.53227L14.62 9.52665L14.5587 9.43539C14.4443 9.24038 14.3392 9.0135 14.2548 8.77662L14.2461 8.74786C14.1835 8.53952 14.1314 8.34181 14.0897 8.15471L14.0585 7.93596L13.7458 8.52911C13.4749 9.02913 13.2143 9.46644 12.9642 9.84104L12.8704 9.99729C12.9755 10.2523 13.053 10.5479 13.088 10.8567L13.0893 10.8723C13.0918 10.9017 13.093 10.9367 13.093 10.9717C13.093 11.4455 12.8592 11.8642 12.5002 12.1199L12.4959 12.123C12.3245 12.2286 12.1201 12.338 11.9081 12.4355L11.8706 12.4511C11.6498 12.5468 11.3941 12.6093 11.1258 12.623H11.1202C11.0996 12.6243 11.0752 12.6255 11.0508 12.6255C10.8945 12.6255 10.7463 12.5899 10.6137 12.5268L10.62 12.5293C10.5406 12.4611 10.4905 12.3611 10.4905 12.2493C10.4905 12.1924 10.5037 12.138 10.5268 12.0899L10.5256 12.0924C10.7757 11.7417 11.022 11.4367 11.284 11.1455L11.2759 11.1548L11.9637 10.2804L11.8393 9.99917C11.7393 9.81541 11.6436 9.59852 11.5667 9.37352L11.5579 9.34351C11.4954 9.13517 11.4433 8.93746 11.4016 8.75036L11.3703 8.53161L11.0577 9.28164C10.808 9.86458 10.5787 10.3644 10.3699 10.7811C10.0585 11.4061 9.79793 11.8853 9.58825 12.2186L9.52572 12.3124C9.27602 12.7078 9.03632 12.9055 8.80663 12.9055C8.57694 12.9055 8.42124 12.7597 8.33954 12.468C8.27951 12.253 8.24449 12.0061 8.24449 11.7511C8.24449 11.7286 8.24449 11.7061 8.24512 11.6836V11.6867L8.30764 11.2492V11.2805C8.1409 11.6759 7.97415 12.0403 7.80741 12.3736C7.69673 12.5899 7.58293 12.7743 7.45537 12.948L7.4635 12.9362C7.33469 13.0712 7.15335 13.1549 6.95263 13.1549C6.95076 13.1549 6.94951 13.1549 6.94763 13.1549C6.9345 13.1562 6.91949 13.1562 6.90449 13.1562C6.74629 13.1562 6.60247 13.0962 6.49367 12.998L6.49429 12.9987C6.27607 12.7749 6.11412 12.4955 6.03033 12.1836L6.0272 12.1705C5.92465 11.8861 5.86588 11.5574 5.86588 11.2148C5.86588 11.1705 5.86713 11.1267 5.869 11.0836V11.0898C5.9184 10.5923 6.01782 10.1367 6.16351 9.70228L6.15038 9.74666L5.02548 10.4029V10.4342C5.18868 10.7729 5.28435 11.1705 5.28435 11.5905C5.28435 11.6674 5.28123 11.7436 5.27497 11.8186L5.2756 11.8086C5.24246 12.4524 5.03674 13.0418 4.70471 13.5399L4.71283 13.5274C4.36455 14.08 3.86244 14.5069 3.26591 14.7537L3.24527 14.7612C2.90949 14.9119 2.5168 15 2.10411 15C1.84274 15 1.58887 14.965 1.34876 14.8987L1.36877 14.9031C1.16992 14.8362 1.00735 14.7037 0.904174 14.5325L0.902298 14.5287C0.756605 14.3175 0.664687 14.0593 0.650305 13.7812V13.7774C0.643427 13.7143 0.639675 13.6412 0.639675 13.5668C0.639675 13.2462 0.712834 12.9424 0.843521 12.6718L0.837893 12.6843C1.19681 12.0724 1.69329 11.5767 2.28607 11.228L2.30483 11.218C2.7244 10.9273 3.2065 10.6454 3.70986 10.3998L3.77615 10.3704L3.93247 10.2767C3.74488 10.1308 3.40097 9.88083 2.90073 9.52665C2.2323 9.07913 1.6514 8.62723 1.10364 8.13846L1.11927 8.15221C0.589651 7.69657 0.203846 7.0878 0.0306394 6.39464L0.025637 6.37089C0.0093794 6.27464 0 6.16401 0 6.0515C0 5.69899 0.0906675 5.36772 0.249492 5.07959L0.24449 5.09021C0.594654 4.33768 1.07988 3.70328 1.67516 3.19326L1.68266 3.18701C2.32672 2.57886 3.05581 2.04946 3.84743 1.62069L3.90183 1.59382C4.60904 1.18567 5.43505 0.806284 6.29608 0.501896L6.40238 0.469395C7.20213 0.176882 8.12568 0.00562523 9.08864 0.0025001H9.08989C9.13366 0.00125005 9.18556 0 9.23746 0C10.0134 0 10.7475 0.179382 11.4003 0.498771L11.3716 0.485645C11.9343 0.741906 12.3558 1.22443 12.5246 1.81445L12.5284 1.82945C12.5803 2.03071 12.6097 2.26197 12.6097 2.5001C12.6097 2.89512 12.5277 3.27139 12.3808 3.61265L12.3877 3.59452C12.1201 4.24268 11.7393 4.79457 11.264 5.24897L11.2622 5.25084C10.7807 5.72774 10.2035 6.109 9.56261 6.36339L9.52822 6.37527C8.85665 6.6634 8.07691 6.84466 7.2584 6.87466L7.24652 6.87529C7.12647 6.88904 6.98765 6.89654 6.84696 6.89654C6.47679 6.89654 6.11974 6.84341 5.78209 6.74403L5.80897 6.75091C5.50696 6.65465 5.24621 6.50527 5.02486 6.31151L5.02736 6.31339C4.87228 6.18713 4.74597 6.0315 4.65593 5.85462L4.65218 5.84649C4.58965 5.67982 4.58444 5.58086 4.63655 5.54961C4.68866 5.51835 4.72513 5.51315 4.74597 5.53398L4.9023 5.69024C5.07676 5.85212 5.28498 5.97962 5.51509 6.06088L5.52759 6.06463C5.84399 6.17463 6.20916 6.23838 6.58871 6.23838C6.71065 6.23838 6.8307 6.23213 6.94888 6.21901L6.9345 6.22026C7.94623 6.10088 8.85853 5.75586 9.64577 5.23709L9.62264 5.25147C10.2879 4.85583 10.8263 4.31205 11.2053 3.6639L11.2165 3.64265C11.4047 3.36639 11.5173 3.02513 11.5173 2.65761C11.5173 2.43198 11.4748 2.21572 11.3972 2.01696L11.4016 2.02883C11.1677 1.65944 10.7894 1.39943 10.348 1.32756L10.3392 1.32631C9.99656 1.24193 9.60263 1.19317 9.19806 1.19317C8.87228 1.19317 8.55339 1.22443 8.24512 1.28443L8.27638 1.27943C7.22151 1.46944 6.27857 1.79507 5.40879 2.24259L5.46569 2.21572C2.90282 3.50744 1.57949 4.8302 1.4957 6.18401V6.21463C1.4957 6.76028 1.71018 7.25593 2.05972 7.62219L2.05909 7.62157C2.4574 8.06409 2.89761 8.45473 3.37846 8.79224L3.40285 8.80849C3.84118 9.13601 4.22886 9.47414 4.58965 9.83916L4.59028 9.84041L4.65281 9.90291L6.65374 8.80974C6.88198 8.47973 7.15648 8.20097 7.47163 7.97596L7.48163 7.96908C7.73175 7.75907 8.0494 7.62219 8.39769 7.59469L8.40331 7.59407C8.41582 7.59282 8.4302 7.59282 8.44521 7.59282C8.67844 7.59282 8.87854 7.73345 8.96483 7.93471L8.96608 7.93846C9.03173 8.08534 9.06988 8.25722 9.06988 8.43785C9.06988 8.49285 9.06613 8.54723 9.05925 8.60098L9.05987 8.59473L8.99922 8.90287L9.09301 8.84037C9.15804 8.79099 9.23996 8.76161 9.32875 8.76161C9.38503 8.76161 9.43817 8.77349 9.48632 8.79474L9.48382 8.79349C9.60388 8.82474 9.69079 8.93225 9.69079 9.05975C9.69079 9.08163 9.68829 9.10288 9.68329 9.12351L9.68392 9.12163L9.59012 9.46539C9.40253 10.215 9.27768 10.7565 9.21557 11.0898C9.18431 11.198 9.1668 11.3223 9.1668 11.4511C9.1668 11.478 9.16742 11.5042 9.1693 11.5305V11.5267C9.17972 11.6517 9.19535 11.7142 9.2162 11.7142C9.23704 11.7142 9.27852 11.6517 9.34063 11.5267L9.43442 11.308C9.45527 11.308 9.45527 11.3184 9.43442 11.3392L9.77833 10.6204C10.5912 8.82953 11.0287 7.82949 11.0908 7.62032L11.2784 7.02717C11.2993 6.9855 11.3826 6.94404 11.5285 6.90279C11.6767 6.86279 11.8462 6.83966 12.0213 6.83966C12.0356 6.83966 12.05 6.83966 12.0638 6.84029H12.0619C12.3537 6.84029 12.4996 6.9132 12.4996 7.05904L12.4683 7.2153C12.3983 7.40781 12.3289 7.64844 12.2751 7.8947L12.2683 7.93408C12.2557 8.01471 12.2482 8.10721 12.2482 8.20222C12.2482 8.32847 12.2607 8.4516 12.2851 8.57098L12.2833 8.55911L12.3145 8.68349C12.3783 8.94412 12.4752 9.17288 12.6022 9.38164L12.5959 9.37102C12.8456 8.95475 13.0853 8.52786 13.315 8.09034C13.4963 7.78845 13.6652 7.43843 13.8008 7.07217L13.8152 7.02842C13.8621 6.79278 13.9159 6.59402 13.9816 6.40027L13.9715 6.43527C13.9924 6.37277 14.0814 6.32589 14.2385 6.29464C14.3874 6.26464 14.5581 6.24776 14.7325 6.24776H14.755H14.7538C15.0456 6.24776 15.2013 6.32068 15.2209 6.46652L15.1584 6.5909C15.0839 6.80091 15.0189 7.05342 14.9751 7.3128L14.9714 7.34093C14.9658 7.40156 14.962 7.47156 14.962 7.54281C14.962 7.6922 14.977 7.83845 15.0052 7.97971L15.0027 7.96533V8.08971C15.0746 8.36222 15.1815 8.60161 15.3216 8.81849L15.3153 8.80849L15.4091 9.02725C15.9312 8.77099 16.5453 8.62098 17.1943 8.62098H17.2187H17.2174L17.2168 8.62286ZM3.81116 13.1562C4.24574 12.7074 4.51399 12.0949 4.51399 11.4199C4.51399 11.1592 4.47397 10.908 4.40019 10.6717L4.40519 10.6892L3.90496 11.0017C3.39472 11.2923 2.95326 11.6167 2.5537 11.9855L2.5587 11.9811C2.25543 12.2599 2.03158 12.6205 1.92153 13.0274L1.91777 13.043C1.82398 13.4285 1.87088 13.6785 2.05846 13.7931C2.17289 13.8456 2.30733 13.8762 2.44802 13.8762C2.60184 13.8762 2.74754 13.84 2.87572 13.7749L2.8701 13.7774C3.24152 13.6424 3.55604 13.4281 3.80616 13.1537L3.80804 13.1518L3.81116 13.1562ZM7.99875 10.2786C8.10297 10.0077 8.2176 9.68478 8.34266 9.30976C8.50941 8.80974 8.56672 8.51827 8.51462 8.43535C8.46251 8.35243 8.3635 8.34201 8.2176 8.4041C8.04377 8.48848 7.89808 8.60411 7.78177 8.74599L7.7799 8.74849C7.64984 8.91287 7.52603 9.09663 7.41598 9.28976L7.40472 9.31101C7.27841 9.5179 7.17149 9.75603 7.09708 10.0085L7.09145 10.0298C6.97077 10.3567 6.90074 10.7348 6.90074 11.1286C6.90074 11.1817 6.90199 11.2342 6.90449 11.2867V11.2792C6.92533 11.6955 6.99203 11.9195 7.10458 11.9511C7.21713 11.9828 7.3474 11.8317 7.49539 11.498C7.63858 11.2398 7.76614 10.9398 7.86119 10.6254L7.86994 10.5917C7.93205 10.4442 7.97457 10.3398 7.9975 10.2786H7.99875ZM11.4666 11.9349C11.9 11.7405 12.2051 11.3311 12.2476 10.8467L12.2482 10.8417V10.8105L11.9043 11.248L11.2797 11.9355C11.2703 11.943 11.264 11.9542 11.264 11.9667C11.264 11.9792 11.2703 11.9905 11.279 11.998C11.299 12.0184 11.3616 11.9976 11.4666 11.9355V11.9349ZM14.1548 11.3411C14.6275 11.2061 14.9676 10.7779 14.9676 10.2711C14.9676 10.2629 14.9676 10.2548 14.9676 10.2467V10.2479C14.9614 10.1229 14.9389 10.0054 14.902 9.89416L14.9045 9.90354C14.6612 10.1198 14.4618 10.3786 14.3173 10.6704L14.3105 10.6848C14.1225 11.0594 14.0699 11.2778 14.1529 11.3398L14.1548 11.3411Z" fill="#87A9E1"/>
</svg>