 <svg width="48" height="48" viewBox="0 0 21 14" fill="none" xmlns="http://www.w3.org/2000/svg">
<path d="M14.3553 1.41904C14.2529 1.41904 14.1846 1.43256 14.1157 1.44931V1.45962H14.1262C14.1741 1.54658 14.2529 1.61421 14.3139 1.69473C14.3618 1.78556 14.4025 1.87896 14.4471 1.96979L14.4609 1.95626C14.543 1.89893 14.5843 1.80875 14.5843 1.6709C14.5502 1.63032 14.543 1.58716 14.5128 1.5498C14.4786 1.49247 14.4032 1.46284 14.3553 1.41904ZM5.04803 12.7516H4.2382C4.21063 11.4099 4.1286 10.148 4.00259 8.96401H3.99603L2.76224 12.7516H2.14338L0.919435 8.96401H0.908935C0.820338 10.0977 0.76193 11.3628 0.738304 12.7516H0C0.0479077 11.0607 0.167349 9.4774 0.35898 8.001H1.36373L2.53255 11.4904H2.53911L3.71843 8.001H4.67527C4.88725 9.73248 5.01391 11.3158 5.05131 12.7516H5.04803ZM8.5617 9.24615C8.23357 11.004 7.79584 12.2827 7.25966 13.0776C6.83571 13.6915 6.37436 14 5.87165 14C5.73843 14 5.57436 13.9594 5.37617 13.8789V13.4563C5.47526 13.4699 5.58814 13.4795 5.7148 13.4795C5.9504 13.4795 6.13875 13.4125 6.28248 13.2882C6.45311 13.1336 6.53908 12.9597 6.53908 12.7684C6.53908 12.6344 6.47411 12.3658 6.3376 11.9567L5.4523 9.24615H6.24901L6.88493 11.2727C7.02866 11.7358 7.09035 12.0547 7.06278 12.2389C7.41454 11.3261 7.65736 10.3264 7.79452 9.24615H8.5617ZM19.3488 12.7516H17.0453V8.001H17.821V12.168H19.3488V12.7516ZM16.4435 12.8663L15.5549 12.4366C15.6337 12.3729 15.7085 12.3027 15.7774 12.2221C16.1567 11.7893 16.3451 11.1419 16.3451 10.2897C16.3451 8.71601 15.7164 7.93143 14.4583 7.93143C13.8427 7.93143 13.361 8.12918 13.0158 8.52856C12.6398 8.96465 12.4481 9.6088 12.4481 10.4578C12.4481 11.2933 12.6155 11.9039 12.9508 12.2962C13.2586 12.6453 13.72 12.8231 14.3389 12.8231C14.5679 12.8231 14.7799 12.7961 14.9715 12.7394L16.1305 13.4035L16.4481 12.8669L16.4435 12.8663ZM13.5625 11.7989C13.3643 11.4904 13.2685 10.9937 13.2685 10.309C13.2685 9.11152 13.638 8.51439 14.3795 8.51439C14.7661 8.51439 15.0529 8.65868 15.234 8.94404C15.4289 9.25581 15.528 9.74601 15.528 10.4237C15.528 11.6282 15.1553 12.2357 14.417 12.2357C14.0271 12.2357 13.7436 12.0914 13.5592 11.806L13.5625 11.7989ZM12.1128 11.4369C12.1128 11.8395 11.9625 12.1719 11.658 12.4263C11.3574 12.6846 10.9571 12.8154 10.4478 12.8154C9.97269 12.8154 9.51789 12.6679 9.07031 12.3722L9.27901 11.9632C9.66161 12.1513 10.0068 12.2453 10.3218 12.2453C10.6126 12.2453 10.8416 12.1816 11.0057 12.0572C11.1697 11.9297 11.2688 11.7519 11.2688 11.5271C11.2688 11.245 11.0673 11.0034 10.7011 10.8024C10.3625 10.6182 9.68261 10.2388 9.68261 10.2388C9.31313 9.97404 9.132 9.6919 9.132 9.22553C9.132 8.83969 9.26851 8.53114 9.54217 8.29602C9.81912 8.05446 10.1709 7.93723 10.6086 7.93723C11.0562 7.93723 11.4664 8.05446 11.8358 8.28958L11.6481 8.69862C11.3338 8.56785 11.0227 8.50086 10.7182 8.50086C10.4688 8.50086 10.2772 8.56141 10.144 8.67865C10.0108 8.79588 9.92872 8.94339 9.92872 9.12827C9.92872 9.41041 10.1341 9.65196 10.5095 9.85938C10.8547 10.0436 11.5484 10.4333 11.5484 10.4333C11.9277 10.6948 12.1161 10.977 12.1161 11.4363L12.1128 11.4369ZM20.3201 6.40801C19.8515 6.3977 19.4893 6.44472 19.1854 6.57226C19.1001 6.60576 18.9597 6.60576 18.9459 6.71333C18.9938 6.76036 19.0003 6.83444 19.0417 6.89756C19.1132 7.01158 19.2333 7.16617 19.3462 7.24669C19.4696 7.34074 19.5923 7.43479 19.719 7.51531C19.948 7.65315 20.2046 7.73367 20.4297 7.87088C20.5564 7.9514 20.6863 8.05511 20.8123 8.13949C20.8773 8.18329 20.918 8.26059 21 8.287V8.27025C20.9587 8.22001 20.9488 8.14593 20.9075 8.08603C20.8491 8.0287 20.7913 7.97845 20.7329 7.92177C20.5623 7.69696 20.3536 7.50242 20.1245 7.34138C19.9368 7.21706 19.5267 7.0425 19.4512 6.83121L19.4407 6.81769C19.5674 6.80738 19.7176 6.76036 19.8404 6.72686C20.0386 6.67662 20.223 6.68628 20.4284 6.63604C20.5209 6.61285 20.6128 6.58579 20.7086 6.55552V6.50527C20.603 6.40156 20.5242 6.26049 20.4146 6.16323C20.1173 5.91136 19.7892 5.66336 19.4505 5.45852C19.2661 5.34129 19.0338 5.26721 18.8389 5.16994C18.7706 5.13645 18.6512 5.1197 18.6131 5.06237C18.5075 4.93483 18.4458 4.77057 18.3703 4.61919C18.203 4.30356 18.0389 3.95507 17.8919 3.61946C17.7862 3.39465 17.7246 3.17307 17.5946 2.965C16.9928 1.98847 16.3365 1.39842 15.3318 0.81804C15.1165 0.696939 14.8567 0.646695 14.583 0.582924C14.436 0.576482 14.2923 0.566176 14.1453 0.559735C14.0494 0.519153 13.9576 0.412223 13.8755 0.358114C13.5408 0.150053 12.6791 -0.296346 12.4363 0.294343C12.2788 0.669885 12.6686 1.03576 12.8058 1.22386C12.9049 1.35784 13.0316 1.506 13.1031 1.65351C13.1444 1.754 13.1543 1.85835 13.1956 1.96206C13.2882 2.21392 13.3768 2.49542 13.5001 2.73053C13.5651 2.85163 13.6334 2.97853 13.7154 3.08611C13.7633 3.14988 13.8453 3.17693 13.8624 3.28064C13.7804 3.39788 13.7738 3.56922 13.7292 3.71029C13.5172 4.36089 13.5992 5.16286 13.8965 5.64275C13.9923 5.78704 14.2142 6.10268 14.5121 5.98158C14.7753 5.87787 14.7175 5.55193 14.7923 5.26334C14.8094 5.19313 14.7989 5.14933 14.8337 5.10231V5.11583C14.919 5.27687 15.001 5.43147 15.0765 5.59251C15.2544 5.87465 15.572 6.16645 15.8352 6.36098C15.9756 6.46469 16.0845 6.64312 16.2591 6.70625V6.6895H16.2453C16.2079 6.63926 16.16 6.61542 16.1121 6.57549C16.0064 6.47178 15.8896 6.34423 15.8043 6.23022C15.5615 5.90814 15.3429 5.55257 15.1513 5.18669C15.0555 5.00568 14.9735 4.81115 14.8987 4.63336C14.8645 4.56637 14.8645 4.46202 14.8061 4.42852C14.7175 4.55284 14.5876 4.65977 14.5259 4.81759C14.413 5.06237 14.4025 5.3677 14.3585 5.68333C14.3382 5.68977 14.348 5.68333 14.3382 5.69686C14.1505 5.64984 14.0855 5.46174 14.0166 5.30071C13.8388 4.89167 13.8112 4.23721 13.9622 3.76762C14.0035 3.64652 14.1774 3.26776 14.1092 3.15374C14.0718 3.04295 13.9556 2.97918 13.8939 2.89221C13.8152 2.78464 13.7364 2.64744 13.6819 2.52634C13.5415 2.20426 13.4732 1.84869 13.3197 1.52661C13.2514 1.3791 13.128 1.2245 13.0289 1.0873C12.9161 0.932699 12.7933 0.822549 12.7074 0.640898C12.6765 0.577127 12.6358 0.473418 12.6837 0.405782C12.6942 0.358758 12.7179 0.34201 12.7658 0.328483C12.8412 0.264712 13.0598 0.345231 13.1353 0.381948C13.3505 0.465688 13.5316 0.546207 13.7128 0.667308C13.7948 0.724638 13.8834 0.831567 13.9897 0.861842H14.1131C14.3008 0.902424 14.5095 0.872149 14.6841 0.925614C14.9951 1.02288 15.2754 1.16395 15.528 1.3179C16.2939 1.7978 16.9226 2.47545 17.3498 3.28386C17.4214 3.41462 17.4522 3.53572 17.5172 3.67293C17.6366 3.95829 17.7908 4.243 17.9136 4.51484C18.0363 4.78667 18.1531 5.06172 18.3303 5.28653C18.4189 5.40763 18.768 5.47076 18.9282 5.53131C19.0443 5.58478 19.2254 5.6318 19.3278 5.69235C19.5293 5.81345 19.7275 5.95066 19.9158 6.08464C20.0117 6.14841 20.3024 6.2927 20.3194 6.40672L20.3201 6.40801Z" fill="#87A9E1"/>
</svg>