<svg width="48" height="48" viewBox="0 0 21 19" fill="none" xmlns="http://www.w3.org/2000/svg">
<path d="M21 9.5C21 14.7472 16.2995 19 10.5 19C4.7005 19 0 14.7472 0 9.5C0 4.25283 4.7005 0 10.5 0C16.2995 0 21 4.25283 21 9.5ZM15.0911 3.51421C14.0236 3.54746 13.0935 4.08025 12.4005 4.81571C11.6322 5.62321 11.1221 6.58033 10.7546 7.55567C10.0958 7.06958 9.58912 6.43625 8.533 6.16154C7.68775 5.92642 6.76988 6.07842 6.07163 6.56846C5.71288 6.821 5.45038 7.16775 5.31825 7.56121C5.00325 8.49221 5.65162 9.32267 5.94737 9.61954L6.59225 10.245C6.7235 10.3669 7.04638 10.6883 6.88888 11.1459C6.72 11.6454 6.05675 11.9668 5.37337 11.7784C5.06887 11.6945 4.63138 11.4887 4.73113 11.2005C4.7705 11.0818 4.86413 10.9923 4.91488 10.891C4.96038 10.8039 4.98225 10.7374 4.998 10.6994C5.12137 10.3313 4.95162 9.85229 4.51587 9.73117C4.109 9.61796 3.69425 9.70742 3.5315 10.1793C3.34862 10.7176 3.63387 11.6937 5.159 12.118C6.944 12.6152 8.45337 11.7349 8.66687 10.5885C8.80075 9.8705 8.44375 9.33613 7.78663 8.65133L7.25112 8.11538C6.9265 7.82246 6.81625 7.32213 7.15138 6.93975C7.43488 6.61596 7.83825 6.47742 8.498 6.63971C9.46312 6.87721 9.89275 7.48125 10.6085 7.96971C10.3127 8.84846 10.1185 9.72958 9.94437 10.5205L9.83675 11.111C9.32487 13.5415 8.93288 14.877 7.917 15.6441C7.71225 15.7755 7.41825 15.9735 6.97812 15.9877C6.74537 15.9917 6.67012 15.8484 6.6675 15.7843C6.66225 15.6386 6.79875 15.5697 6.89062 15.5048C7.02537 15.4391 7.23187 15.3275 7.21612 14.9712C7.20212 14.55 6.81712 14.1843 6.25887 14.2009C5.8415 14.2144 5.20625 14.569 5.22988 15.219C5.25438 15.8919 5.9465 16.3946 6.99037 16.3622C7.54862 16.3455 8.79463 16.1397 10.0214 14.8192C11.4503 13.3063 11.8501 11.5726 12.1511 10.302L12.4863 8.62679C12.6726 8.64579 12.8721 8.66004 13.09 8.66479C14.868 8.69962 15.7579 7.86521 15.771 7.25879C15.7798 6.89146 15.505 6.52967 15.12 6.53838C14.7823 6.5455 14.4918 6.75846 14.4148 7.05613C14.3325 7.39496 14.98 7.69975 14.4742 7.99742C14.1155 8.208 13.4715 8.35525 12.5632 8.23492L12.7277 7.41C13.0655 5.84567 13.4794 3.92113 15.0561 3.87363C15.1716 3.86808 15.5916 3.87838 15.6012 4.12933C15.6039 4.21246 15.582 4.23542 15.4726 4.42621C15.372 4.54892 15.3204 4.69933 15.3256 4.85133C15.3405 5.25033 15.6756 5.51317 16.163 5.49733C16.8131 5.47912 16.9986 4.90517 16.9899 4.61146C16.9619 3.91954 16.1569 3.48413 15.0911 3.51421Z" fill="#87A9E1"/>
</svg>