<svg width="48" height="48" viewBox="0 0 16 17" fill="none" xmlns="http://www.w3.org/2000/svg">
<path d="M2.28669 2.90219C2.41769 3.11469 3.53669 2.04794 4.51369 2.28541C5.54419 2.53616 6.52069 4.26378 6.93769 9.56353C7.56517 10.1627 8.15651 10.8032 8.70819 11.4813C8.88486 11.6988 9.05369 11.9148 9.21469 12.1295C9.23884 11.8793 9.27708 11.631 9.32919 11.3857C9.51087 10.5447 9.84751 9.75026 10.3197 9.04822C10.161 7.30399 9.58088 5.63289 8.63569 4.19685C8.12069 3.42919 6.33569 0.755408 4.36269 1.09275C3.09069 1.3095 2.14969 2.68491 2.28669 2.90219Z" fill="#87A9E1"/>
<path d="M12.2 15.9375C12.04 14.5737 11.976 13.4087 11.95 12.5114C11.903 10.7944 12 10.099 12.4 9.45356C12.4965 9.29684 13.044 8.40434 13.69 8.46384C14.423 8.53184 14.7965 9.74628 14.871 9.70537C14.9585 9.65756 14.691 7.82315 13.605 7.3514C12.305 6.78668 10.449 8.45109 9.70497 10.0895C9.50617 10.567 9.3623 11.0682 9.27647 11.5823C8.98516 13.0126 8.86587 14.4763 8.92147 15.9385L12.2 15.9375Z" fill="#87A9E1"/>
<path d="M1.11879 7.40299C1.19129 7.16553 2.35279 7.2654 3.38879 7.55865C4.63879 7.91246 6.88879 8.8039 9.21429 12.1306C9.87596 13.2718 10.1983 14.5986 10.1393 15.9375H5.19279C5.24531 15.1184 5.21598 14.2957 5.10529 13.4831C5.01034 12.1243 4.58684 10.8145 3.87579 9.68046C2.72029 8.05324 1.02729 7.70315 1.11879 7.40299Z" fill="#87A9E1"/>
<path d="M8.65046 11.3279C8.65036 11.5433 8.57995 11.7521 8.45123 11.9185C8.32252 12.085 8.14346 12.1989 7.94456 12.2409C7.74566 12.2828 7.53923 12.2502 7.36043 12.1485C7.18164 12.0469 7.04156 11.8825 6.96404 11.6834C6.88652 11.4843 6.87636 11.2628 6.93531 11.0567C6.99425 10.8505 7.11864 10.6725 7.28729 10.5529C7.45594 10.4332 7.65841 10.3794 7.8602 10.4006C8.06199 10.4218 8.25063 10.5167 8.39396 10.6691C8.47545 10.7556 8.54006 10.8583 8.58408 10.9713C8.6281 11.0844 8.65066 11.2055 8.65046 11.3279Z" fill="#718CB9"/>
<path d="M10.9874 11.3279C10.9873 11.5433 10.9169 11.7521 10.7881 11.9185C10.6594 12.085 10.4804 12.1989 10.2815 12.2409C10.0826 12.2828 9.87614 12.2502 9.69735 12.1485C9.51856 12.0469 9.37847 11.8825 9.30095 11.6834C9.22343 11.4843 9.21328 11.2628 9.27222 11.0567C9.33116 10.8505 9.45556 10.6725 9.6242 10.5529C9.79285 10.4332 9.99532 10.3794 10.1971 10.4006C10.3989 10.4218 10.5875 10.5167 10.7309 10.6691C10.8124 10.7556 10.877 10.8583 10.921 10.9713C10.965 11.0844 10.9876 11.2055 10.9874 11.3279V11.3279Z" fill="#718CB9"/>
</svg>